<?xml version="1.0" encoding="UTF-8" standalone="no"?>
<svg
   xmlns:dc="http://purl.org/dc/elements/1.1/"
   xmlns:cc="http://creativecommons.org/ns#"
   xmlns:rdf="http://www.w3.org/1999/02/22-rdf-syntax-ns#"
   xmlns:svg="http://www.w3.org/2000/svg"
   xmlns="http://www.w3.org/2000/svg"
   xmlns:sodipodi="http://sodipodi.sourceforge.net/DTD/sodipodi-0.dtd"
   xmlns:inkscape="http://www.inkscape.org/namespaces/inkscape"
   version="1.1"
   viewBox="0 0 399.89099 807.30405"
   stroke-miterlimit="10"
   id="svg3879"
   sodipodi:docname="active_learning_loop.svg"
   width="10.580449cm"
   height="21.359921cm"
   style="fill:none;stroke:none;stroke-linecap:square;stroke-miterlimit:10"
   inkscape:version="0.92.4 (5da689c313, 2019-01-14)">
  <metadata
     id="metadata3885">
    <rdf:RDF>
      <cc:Work
         rdf:about="">
        <dc:format>image/svg+xml</dc:format>
        <dc:type
           rdf:resource="http://purl.org/dc/dcmitype/StillImage" />
        <dc:title></dc:title>
      </cc:Work>
    </rdf:RDF>
  </metadata>
  <defs
     id="defs3883" />
  <sodipodi:namedview
     pagecolor="#ffffff"
     bordercolor="#666666"
     borderopacity="1"
     objecttolerance="10"
     gridtolerance="10"
     guidetolerance="10"
     inkscape:pageopacity="0"
     inkscape:pageshadow="2"
     inkscape:window-width="1368"
     inkscape:window-height="889"
     id="namedview3881"
     showgrid="false"
     units="cm"
     fit-margin-top="0.5"
     fit-margin-bottom="0.5"
     fit-margin-left="0.25"
     fit-margin-right="0.25"
     inkscape:zoom="0.61448826"
     inkscape:cx="199.40631"
     inkscape:cy="352.95147"
     inkscape:window-x="-8"
     inkscape:window-y="-8"
     inkscape:window-maximized="1"
     inkscape:current-layer="svg3879" />
  <clipPath
     id="p.0">
    <path
       d="M 0,0 H 396 V 794 H 0 Z"
       id="path3800"
       inkscape:connector-curvature="0"
       style="clip-rule:nonzero" />
  </clipPath>
  <path
     style="fill-rule:evenodd;stroke:#000000;stroke-width:3;stroke-linecap:butt;stroke-linejoin:round"
     inkscape:connector-curvature="0"
     id="path3871"
     d="M 388.94213,59.783468 H 220.49259 v 14.52156 h 17.89691 l -37.58983,24.86427 -37.58983,-24.86427 h 17.89691 v -53.90739 h 207.83537 z" />
  <path
     style="fill:#000000;fill-opacity:0;fill-rule:evenodd"
     inkscape:connector-curvature="0"
     id="path3805"
     d="m 10.448829,121.96492 v 0 c 0,-9.74418 7.89922,-17.64339 17.6434,-17.64339 H 370.91566 c 4.67933,0 9.167,1.85884 12.47577,5.16763 3.30878,3.30878 5.16764,7.79645 5.16764,12.47576 v 70.57147 c 0,9.74419 -7.8992,17.6434 -17.6434,17.6434 H 28.092229 c -9.74418,0 -17.6434,-7.89921 -17.6434,-17.6434 z" />
  <path
     style="fill-rule:evenodd;stroke:#000000;stroke-width:2;stroke-linecap:butt;stroke-linejoin:round"
     inkscape:connector-curvature="0"
     id="path3807"
     d="m 10.448829,121.96492 v 0 c 0,-9.74418 7.89922,-17.64339 17.6434,-17.64339 H 370.91566 c 4.67933,0 9.167,1.85884 12.47577,5.16763 3.30878,3.30878 5.16764,7.79645 5.16764,12.47576 v 70.57147 c 0,9.74419 -7.8992,17.6434 -17.6434,17.6434 H 28.092229 c -9.74418,0 -17.6434,-7.89921 -17.6434,-17.6434 z" />
  <path
     style="fill:#000000;fill-rule:nonzero"
     inkscape:connector-curvature="0"
     id="path3809"
     d="m 64.675389,150.85066 v -16.82813 h -6.28125 v -2.25 h 15.125 v 2.25 h -6.3125 v 16.82813 z m 10.12125,0 v -13.82813 h 2.10937 v 2.09375 q 0.79688,-1.46875 1.48438,-1.9375 0.6875,-0.46875 1.5,-0.46875 1.1875,0 2.40625,0.76563 l -0.79688,2.17187 q -0.85937,-0.51562 -1.71875,-0.51562 -0.76562,0 -1.39062,0.46875 -0.60938,0.45312 -0.85938,1.28125 -0.39062,1.25 -0.39062,2.73437 v 7.23438 z m 17.92361,-1.70313 q -1.3125,1.10938 -2.51562,1.5625 -1.20313,0.45313 -2.57813,0.45313 -2.28125,0 -3.5,-1.10938 -1.21875,-1.10937 -1.21875,-2.84375 0,-1.01562 0.45313,-1.85937 0.46875,-0.84375 1.21875,-1.34375 0.75,-0.51563 1.6875,-0.76563 0.6875,-0.1875 2.07812,-0.35937 2.82813,-0.32813 4.17188,-0.79688 0.0156,-0.48437 0.0156,-0.625 0,-1.42187 -0.65625,-2.01562 -0.90625,-0.79688 -2.67188,-0.79688 -1.65625,0 -2.45312,0.59375 -0.78125,0.57813 -1.15625,2.04688 l -2.29688,-0.3125 q 0.3125,-1.46875 1.03125,-2.375 0.71875,-0.90625 2.0625,-1.39063 1.35938,-0.5 3.14063,-0.5 1.78125,0 2.875,0.42188 1.10937,0.42187 1.625,1.04687 0.53125,0.625 0.73437,1.59375 0.125,0.59375 0.125,2.15625 v 3.125 q 0,3.26563 0.14063,4.14063 0.15625,0.85937 0.59375,1.65625 h -2.4375 q -0.375,-0.73438 -0.46875,-1.70313 z m -0.20312,-5.23437 q -1.26563,0.51562 -3.82813,0.89062 -1.4375,0.20313 -2.04687,0.46875 -0.59375,0.25 -0.92188,0.75 -0.3125,0.5 -0.3125,1.125 0,0.9375 0.70313,1.5625 0.70312,0.625 2.07812,0.625 1.34375,0 2.39063,-0.59375 1.0625,-0.59375 1.5625,-1.625 0.375,-0.79687 0.375,-2.34375 z m 6.01243,-9.45313 v -2.6875 h 2.343751 v 2.6875 z m 0,16.39063 v -13.82813 h 2.343751 v 13.82813 z m 5.906541,0 v -13.82813 h 2.10938 v 1.96875 q 1.53125,-2.28125 4.40626,-2.28125 1.25,0 2.29687,0.45313 1.04688,0.45312 1.5625,1.1875 0.53125,0.71875 0.73438,1.71875 0.125,0.65625 0.125,2.28125 v 8.5 h -2.34375 v -8.40625 q 0,-1.4375 -0.28125,-2.14063 -0.26563,-0.71875 -0.96875,-1.14062 -0.6875,-0.42188 -1.625,-0.42188 -1.48439,0 -2.57814,0.95313 -1.09375,0.95312 -1.09375,3.60937 v 7.54688 z m 22.2309,0 v -13.82813 h 2.10937 v 1.9375 q 0.64063,-1.01562 1.71875,-1.625 1.09375,-0.625 2.46875,-0.625 1.53125,0 2.51563,0.64063 0.98437,0.64062 1.39062,1.78125 1.64063,-2.42188 4.26563,-2.42188 2.0625,0 3.15625,1.14063 1.10937,1.14062 1.10937,3.51562 v 9.48438 h -2.32812 v -8.70313 q 0,-1.40625 -0.23438,-2.01562 -0.21875,-0.625 -0.82812,-1 -0.59375,-0.39063 -1.39063,-0.39063 -1.46875,0 -2.4375,0.96875 -0.95312,0.96875 -0.95312,3.10938 v 8.03125 h -2.34375 v -8.98438 q 0,-1.5625 -0.57813,-2.34375 -0.5625,-0.78125 -1.875,-0.78125 -0.98437,0 -1.82812,0.53125 -0.82813,0.51563 -1.21875,1.51563 -0.375,1 -0.375,2.89062 v 7.17188 z m 21.34549,-6.90625 q 0,-3.84375 2.125,-5.6875 1.78125,-1.54688 4.34375,-1.54688 2.85937,0 4.65625,1.875 1.8125,1.85938 1.8125,5.15625 0,2.67188 -0.79688,4.20313 -0.79687,1.53125 -2.32812,2.375 -1.53125,0.84375 -3.34375,0.84375 -2.89063,0 -4.6875,-1.85938 -1.78125,-1.85937 -1.78125,-5.35937 z m 2.40625,0 q 0,2.65625 1.15625,3.98437 1.15625,1.3125 2.90625,1.3125 1.75,0 2.90625,-1.32812 1.15625,-1.32813 1.15625,-4.04688 0,-2.5625 -1.17188,-3.89062 -1.15625,-1.32813 -2.89062,-1.32813 -1.75,0 -2.90625,1.32813 -1.15625,1.3125 -1.15625,3.96875 z m 22.24681,6.90625 v -1.75 q -1.3125,2.0625 -3.85938,2.0625 -1.65625,0 -3.04687,-0.90625 -1.375,-0.92188 -2.14063,-2.54688 -0.76562,-1.64062 -0.76562,-3.75 0,-2.07812 0.6875,-3.76562 0.70312,-1.6875 2.07812,-2.57813 1.375,-0.90625 3.07813,-0.90625 1.25,0 2.21875,0.53125 0.98437,0.53125 1.59375,1.375 v -6.84375 h 2.34375 v 19.07813 z m -7.40625,-6.89063 q 0,2.64063 1.125,3.96875 1.125,1.3125 2.64062,1.3125 1.53125,0 2.60938,-1.25 1.07812,-1.26562 1.07812,-3.84375 0,-2.84375 -1.09375,-4.17187 -1.09375,-1.32813 -2.70312,-1.32813 -1.54688,0 -2.60938,1.28125 -1.04687,1.28125 -1.04687,4.03125 z m 22.73119,2.4375 2.42187,0.29688 q -0.57812,2.125 -2.125,3.29687 -1.54687,1.17188 -3.95312,1.17188 -3.03125,0 -4.8125,-1.85938 -1.78125,-1.875 -1.78125,-5.25 0,-3.48437 1.79687,-5.40625 1.79688,-1.9375 4.67188,-1.9375 2.76562,0 4.51562,1.89063 1.76563,1.89062 1.76563,5.3125 0,0.20312 -0.0156,0.625 h -10.3125 q 0.14063,2.28125 1.29688,3.5 1.15625,1.20312 2.89062,1.20312 1.28125,0 2.1875,-0.67187 0.92188,-0.6875 1.45313,-2.17188 z m -7.6875,-3.78125 h 7.71875 q -0.15625,-1.75 -0.89063,-2.625 -1.125,-1.34375 -2.90625,-1.34375 -1.60937,0 -2.71875,1.07813 -1.09375,1.07812 -1.20312,2.89062 z m 12.99681,8.23438 v -19.07813 h 2.34375 v 19.07813 z m 12.51562,-6.90625 q 0,-3.84375 2.125,-5.6875 1.78125,-1.54688 4.34375,-1.54688 2.85938,0 4.65625,1.875 1.8125,1.85938 1.8125,5.15625 0,2.67188 -0.79687,4.20313 -0.79688,1.53125 -2.32813,2.375 -1.53125,0.84375 -3.34375,0.84375 -2.89062,0 -4.6875,-1.85938 -1.78125,-1.85937 -1.78125,-5.35937 z m 2.40625,0 q 0,2.65625 1.15625,3.98437 1.15625,1.3125 2.90625,1.3125 1.75,0 2.90625,-1.32812 1.15625,-1.32813 1.15625,-4.04688 0,-2.5625 -1.17187,-3.89062 -1.15625,-1.32813 -2.89063,-1.32813 -1.75,0 -2.90625,1.32813 -1.15625,1.3125 -1.15625,3.96875 z m 13.27806,6.90625 v -13.82813 h 2.10938 v 1.96875 q 1.53125,-2.28125 4.40625,-2.28125 1.25,0 2.29687,0.45313 1.04688,0.45312 1.5625,1.1875 0.53125,0.71875 0.73438,1.71875 0.125,0.65625 0.125,2.28125 v 8.5 h -2.34375 v -8.40625 q 0,-1.4375 -0.28125,-2.14063 -0.26563,-0.71875 -0.96875,-1.14062 -0.6875,-0.42188 -1.625,-0.42188 -1.48438,0 -2.57813,0.95313 -1.09375,0.95312 -1.09375,3.60937 v 7.54688 z" />
  <path
     style="fill:#000000;fill-rule:nonzero"
     inkscape:connector-curvature="0"
     id="path3811"
     d="m 243.88688,150.85066 v -19.07813 h 3.67187 v 19.07813 z m 10.14035,-9.60938 -3.31252,-0.59375 q 0.5625,-2 1.9219,-2.96875 1.375,-0.96875 4.0625,-0.96875 2.45312,0 3.64062,0.57813 1.20313,0.57812 1.6875,1.48437 0.5,0.89063 0.5,3.26563 l -0.0469,4.26562 q 0,1.82813 0.17187,2.70313 0.17188,0.85937 0.65625,1.84375 h -3.60937 q -0.14063,-0.35938 -0.35938,-1.07813 -0.0937,-0.32812 -0.125,-0.4375 -0.9375,0.92188 -2.01562,1.375 -1.0625,0.45313 -2.26563,0.45313 -2.14062,0 -3.37502,-1.15625 -1.21875,-1.15625 -1.21875,-2.9375 0,-1.17188 0.54688,-2.07813 0.5625,-0.92187 1.57814,-1.40625 1.01563,-0.48437 2.90625,-0.85937 2.5625,-0.48438 3.5625,-0.89063 v -0.375 q 0,-1.04687 -0.53125,-1.5 -0.51562,-0.45312 -1.96875,-0.45312 -0.96875,0 -1.51562,0.39062 -0.54688,0.39063 -0.89063,1.34375 z m 4.90625,2.96875 q -0.70312,0.23438 -2.23437,0.5625 -1.51563,0.32813 -1.98438,0.64063 -0.71875,0.5 -0.71875,1.28125 0,0.76562 0.5625,1.32812 0.57813,0.5625 1.46875,0.5625 0.98438,0 1.89063,-0.65625 0.65625,-0.48437 0.85937,-1.20312 0.15625,-0.46875 0.15625,-1.78125 z m 7.02805,6.64063 v -19.07813 h 3.67187 v 6.875 q 1.6875,-1.9375 4,-1.9375 2.53125,0 4.17188,1.82813 1.65625,1.82812 1.65625,5.26562 0,3.53125 -1.6875,5.45313 -1.67188,1.90625 -4.09375,1.90625 -1.17188,0 -2.32813,-0.59375 -1.15625,-0.59375 -1.98437,-1.75 v 2.03125 z m 3.64062,-7.20313 q 0,2.14063 0.67188,3.17188 0.95312,1.45312 2.53125,1.45312 1.20312,0 2.04687,-1.03125 0.85938,-1.03125 0.85938,-3.26562 0,-2.35938 -0.85938,-3.40625 -0.85937,-1.0625 -2.1875,-1.0625 -1.32812,0 -2.20312,1.03125 -0.85938,1.01562 -0.85938,3.10937 z m 20.81393,2.79688 3.64063,0.625 q -0.70313,2 -2.21875,3.04687 -1.51563,1.04688 -3.79688,1.04688 -3.60937,0 -5.32812,-2.35938 -1.375,-1.89062 -1.375,-4.76562 0,-3.4375 1.79687,-5.375 1.79688,-1.95313 4.54688,-1.95313 3.07812,0 4.85937,2.04688 1.78125,2.03125 1.70313,6.23437 h -9.15625 q 0.0469,1.625 0.89062,2.53125 0.84375,0.90625 2.10938,0.90625 0.85937,0 1.4375,-0.46875 0.59375,-0.46875 0.89062,-1.51562 z m 0.20313,-3.6875 q -0.0312,-1.59375 -0.8125,-2.42188 -0.78125,-0.82812 -1.90625,-0.82812 -1.20313,0 -1.98438,0.875 -0.78125,0.875 -0.76562,2.375 z m 6.6062,8.09375 v -19.07813 h 3.67188 v 19.07813 z m 7.40595,0 v -19.07813 h 3.67187 v 19.07813 z m 15.4216,-4.40625 3.64062,0.625 q -0.70312,2 -2.21875,3.04687 -1.51562,1.04688 -3.79687,1.04688 -3.60938,0 -5.32813,-2.35938 -1.375,-1.89062 -1.375,-4.76562 0,-3.4375 1.79688,-5.375 1.79687,-1.95313 4.54687,-1.95313 3.07813,0 4.85938,2.04688 1.78125,2.03125 1.70312,6.23437 h -9.15625 q 0.0469,1.625 0.89063,2.53125 0.84375,0.90625 2.10937,0.90625 0.85938,0 1.4375,-0.46875 0.59375,-0.46875 0.89063,-1.51562 z m 0.20312,-3.6875 q -0.0312,-1.59375 -0.8125,-2.42188 -0.78125,-0.82812 -1.90625,-0.82812 -1.20312,0 -1.98437,0.875 -0.78125,0.875 -0.76563,2.375 z m 19.29367,8.09375 h -3.40625 v -2.03125 q -0.84375,1.1875 -2,1.76562 -1.14062,0.57813 -2.3125,0.57813 -2.39062,0 -4.09375,-1.92188 -1.6875,-1.92187 -1.6875,-5.35937 0,-3.51563 1.65625,-5.34375 1.65625,-1.82813 4.17188,-1.82813 2.3125,0 4.01562,1.9375 v -6.875 h 3.65625 z m -9.76562,-7.20313 q 0,2.20313 0.60937,3.1875 0.89063,1.4375 2.46875,1.4375 1.26563,0 2.15625,-1.0625 0.89063,-1.07812 0.89063,-3.21875 0,-2.375 -0.85938,-3.42187 -0.85937,-1.0625 -2.20312,-1.0625 -1.29688,0 -2.1875,1.04687 -0.875,1.03125 -0.875,3.09375 z" />
  <path
     style="fill:#000000;fill-rule:nonzero"
     inkscape:connector-curvature="0"
     id="path3813"
     d="m 141.18307,180.75691 0.32812,2.0625 q -0.98437,0.21875 -1.76562,0.21875 -1.26563,0 -1.96875,-0.40625 -0.70313,-0.40625 -1,-1.0625 -0.28125,-0.65625 -0.28125,-2.76563 v -7.95312 h -1.71875 v -1.82813 h 1.71875 v -3.42187 l 2.32812,-1.40625 v 4.82812 h 2.35938 v 1.82813 h -2.35938 v 8.07812 q 0,1 0.125,1.29688 0.125,0.28125 0.40625,0.45312 0.28125,0.17188 0.79688,0.17188 0.39062,0 1.03125,-0.0937 z m 2.26533,2.09375 v -13.82813 h 2.10938 v 2.09375 q 0.79687,-1.46875 1.48437,-1.9375 0.6875,-0.46875 1.5,-0.46875 1.1875,0 2.40625,0.76563 l -0.79687,2.17187 q -0.85938,-0.51562 -1.71875,-0.51562 -0.76563,0 -1.39063,0.46875 -0.60937,0.45312 -0.85937,1.28125 -0.39063,1.25 -0.39063,2.73437 v 7.23438 z m 17.92362,-1.70313 q -1.3125,1.10938 -2.51563,1.5625 -1.20312,0.45313 -2.57812,0.45313 -2.28125,0 -3.5,-1.10938 -1.21875,-1.10937 -1.21875,-2.84375 0,-1.01562 0.45312,-1.85937 0.46875,-0.84375 1.21875,-1.34375 0.75,-0.51563 1.6875,-0.76563 0.6875,-0.1875 2.07813,-0.35937 2.82812,-0.32813 4.17187,-0.79688 0.0156,-0.48437 0.0156,-0.625 0,-1.42187 -0.65625,-2.01562 -0.90625,-0.79688 -2.67188,-0.79688 -1.65625,0 -2.45312,0.59375 -0.78125,0.57813 -1.15625,2.04688 l -2.29688,-0.3125 q 0.3125,-1.46875 1.03125,-2.375 0.71875,-0.90625 2.0625,-1.39063 1.35938,-0.5 3.14063,-0.5 1.78125,0 2.875,0.42188 1.10937,0.42187 1.625,1.04687 0.53125,0.625 0.73437,1.59375 0.125,0.59375 0.125,2.15625 v 3.125 q 0,3.26563 0.14063,4.14063 0.15625,0.85937 0.59375,1.65625 h -2.4375 q -0.375,-0.73438 -0.46875,-1.70313 z m -0.20313,-5.23437 q -1.26562,0.51562 -3.82812,0.89062 -1.4375,0.20313 -2.04688,0.46875 -0.59375,0.25 -0.92187,0.75 -0.3125,0.5 -0.3125,1.125 0,0.9375 0.70312,1.5625 0.70313,0.625 2.07813,0.625 1.34375,0 2.39062,-0.59375 1.0625,-0.59375 1.5625,-1.625 0.375,-0.79687 0.375,-2.34375 z m 6.01244,-9.45313 v -2.6875 h 2.34375 v 2.6875 z m 0,16.39063 v -13.82813 h 2.34375 v 13.82813 z m 5.90654,0 v -13.82813 h 2.10938 v 1.96875 q 1.53125,-2.28125 4.40625,-2.28125 1.25,0 2.29687,0.45313 1.04688,0.45312 1.5625,1.1875 0.53125,0.71875 0.73438,1.71875 0.125,0.65625 0.125,2.28125 v 8.5 h -2.34375 v -8.40625 q 0,-1.4375 -0.28125,-2.14063 -0.26563,-0.71875 -0.96875,-1.14062 -0.6875,-0.42188 -1.625,-0.42188 -1.48438,0 -2.57813,0.95313 -1.09375,0.95312 -1.09375,3.60937 v 7.54688 z m 14.84056,-16.39063 v -2.6875 h 2.34375 v 2.6875 z m 0,16.39063 v -13.82813 h 2.34375 v 13.82813 z m 5.90654,0 v -13.82813 h 2.10938 v 1.96875 q 1.53125,-2.28125 4.40625,-2.28125 1.25,0 2.29687,0.45313 1.04688,0.45312 1.5625,1.1875 0.53125,0.71875 0.73438,1.71875 0.125,0.65625 0.125,2.28125 v 8.5 h -2.34375 v -8.40625 q 0,-1.4375 -0.28125,-2.14063 -0.26563,-0.71875 -0.96875,-1.14062 -0.6875,-0.42188 -1.625,-0.42188 -1.48438,0 -2.57813,0.95313 -1.09375,0.95312 -1.09375,3.60937 v 7.54688 z m 14.40306,1.14062 2.28125,0.34375 q 0.14063,1.04688 0.79688,1.53125 0.85937,0.65625 2.375,0.65625 1.625,0 2.5,-0.65625 0.89062,-0.64062 1.20312,-1.8125 0.1875,-0.71875 0.17188,-3.01562 -1.53125,1.8125 -3.82813,1.8125 -2.84375,0 -4.40625,-2.04688 -1.5625,-2.0625 -1.5625,-4.9375 0,-1.98437 0.71875,-3.65625 0.71875,-1.67187 2.07813,-2.57812 1.35937,-0.92188 3.1875,-0.92188 2.45312,0 4.03125,1.98438 v -1.67188 h 2.17187 v 11.95313 q 0,3.23437 -0.65625,4.57812 -0.65625,1.34375 -2.09375,2.125 -1.42187,0.78125 -3.5,0.78125 -2.46875,0 -4,-1.10937 -1.51562,-1.10938 -1.46875,-3.35938 z m 1.9375,-8.29687 q 0,2.71875 1.07813,3.96875 1.07812,1.25 2.70312,1.25 1.625,0 2.71875,-1.23438 1.09375,-1.25 1.09375,-3.90625 0,-2.54687 -1.125,-3.82812 -1.125,-1.29688 -2.71875,-1.29688 -1.5625,0 -2.65625,1.28125 -1.09375,1.26563 -1.09375,3.76563 z m 19.77777,3.03125 2.32813,-0.35938 q 0.1875,1.39063 1.07812,2.14063 0.89063,0.73437 2.5,0.73437 1.60938,0 2.39063,-0.65625 0.78125,-0.65625 0.78125,-1.54687 0,-0.79688 -0.6875,-1.25 -0.48438,-0.3125 -2.39063,-0.79688 -2.57812,-0.65625 -3.57812,-1.125 -1,-0.46875 -1.51563,-1.3125 -0.51562,-0.84375 -0.51562,-1.85937 0,-0.92188 0.42187,-1.70313 0.4375,-0.79687 1.15625,-1.3125 0.54688,-0.40625 1.48438,-0.6875 0.95312,-0.28125 2.03125,-0.28125 1.625,0 2.85937,0.46875 1.23438,0.46875 1.8125,1.28125 0.59375,0.79688 0.8125,2.14063 l -2.29687,0.3125 q -0.15625,-1.07813 -0.90625,-1.67188 -0.75,-0.59375 -2.10938,-0.59375 -1.60937,0 -2.3125,0.53125 -0.6875,0.53125 -0.6875,1.25 0,0.45313 0.29688,0.8125 0.28125,0.375 0.89062,0.625 0.35938,0.14063 2.07813,0.60938 2.48437,0.65625 3.46875,1.07812 0.98437,0.42188 1.53125,1.23438 0.5625,0.79687 0.5625,2 0,1.17187 -0.6875,2.21875 -0.67188,1.03125 -1.96875,1.59375 -1.28125,0.5625 -2.90625,0.5625 -2.70313,0 -4.125,-1.10938 -1.40625,-1.125 -1.79688,-3.32812 z m 23.73439,-0.32813 2.42188,0.29688 q -0.57813,2.125 -2.125,3.29687 -1.54688,1.17188 -3.95314,1.17188 -3.03125,0 -4.8125,-1.85938 -1.78125,-1.875 -1.78125,-5.25 0,-3.48437 1.79687,-5.40625 1.79688,-1.9375 4.67188,-1.9375 2.76564,0 4.51564,1.89063 1.76562,1.89062 1.76562,5.3125 0,0.20312 -0.0156,0.625 h -10.31252 q 0.14063,2.28125 1.29688,3.5 1.15625,1.20312 2.89062,1.20312 1.28125,0 2.18752,-0.67187 0.92187,-0.6875 1.45312,-2.17188 z m -7.68751,-3.78125 h 7.71876 q -0.15625,-1.75 -0.89062,-2.625 -1.12502,-1.34375 -2.90627,-1.34375 -1.60937,0 -2.71875,1.07813 -1.09375,1.07812 -1.20312,2.89062 z m 18.16868,6.14063 0.32813,2.0625 q -0.98438,0.21875 -1.76563,0.21875 -1.26562,0 -1.96875,-0.40625 -0.70312,-0.40625 -1,-1.0625 -0.28125,-0.65625 -0.28125,-2.76563 v -7.95312 h -1.71875 v -1.82813 h 1.71875 v -3.42187 l 2.32813,-1.40625 v 4.82812 h 2.35937 v 1.82813 h -2.35937 v 8.07812 q 0,1 0.125,1.29688 0.125,0.28125 0.40625,0.45312 0.28125,0.17188 0.79687,0.17188 0.39063,0 1.03125,-0.0937 z" />
  <path
     style="fill:#000000;fill-opacity:0;fill-rule:evenodd"
     inkscape:connector-curvature="0"
     id="path3815"
     d="m 10.448819,285.11976 v 0 c 0,-9.74417 7.89922,-17.64337 17.6434,-17.64337 H 366.34873 c 4.67932,0 9.16699,1.85882 12.47577,5.1676 3.30877,3.30881 5.16763,7.79645 5.16763,12.47577 v 70.57147 c 0,9.7442 -7.89923,17.6434 -17.6434,17.6434 H 28.092219 c -9.74418,0 -17.6434,-7.8992 -17.6434,-17.6434 z" />
  <path
     style="fill-rule:evenodd;stroke:#000000;stroke-width:2;stroke-linecap:butt;stroke-linejoin:round"
     inkscape:connector-curvature="0"
     id="path3817"
     d="m 10.448819,285.11976 v 0 c 0,-9.74417 7.89922,-17.64337 17.6434,-17.64337 H 366.34873 c 4.67932,0 9.16699,1.85882 12.47577,5.1676 3.30877,3.30881 5.16763,7.79645 5.16763,12.47577 v 70.57147 c 0,9.7442 -7.89923,17.6434 -17.6434,17.6434 H 28.092219 c -9.74418,0 -17.6434,-7.8992 -17.6434,-17.6434 z" />
  <path
     style="fill:#000000;fill-rule:nonzero"
     inkscape:connector-curvature="0"
     id="path3819"
     d="m 30.398459,298.0055 v -19.07813 h 13.79687 v 2.25 h -11.26562 v 5.84375 h 10.54687 v 2.23438 h -10.54687 v 6.5 h 11.70312 v 2.25 z m 21.26388,0 -5.25,-13.82813 h 2.46875 l 2.96875,8.28125 q 0.48438,1.34375 0.89063,2.78125 0.29687,-1.09375 0.85937,-2.625 l 3.07813,-8.4375 h 2.40625 l -5.23438,13.82813 z m 18.51563,-1.70313 q -1.3125,1.10938 -2.51563,1.5625 -1.20312,0.45313 -2.57812,0.45313 -2.28125,0 -3.5,-1.10938 -1.21875,-1.10937 -1.21875,-2.84375 0,-1.01562 0.45312,-1.85937 0.46875,-0.84375 1.21875,-1.34375 0.75,-0.51563 1.6875,-0.76563 0.6875,-0.1875 2.07813,-0.35937 2.82812,-0.32813 4.17187,-0.79688 0.0156,-0.48437 0.0156,-0.625 0,-1.42187 -0.65625,-2.01562 -0.90625,-0.79688 -2.67187,-0.79688 -1.65625,0 -2.45313,0.59375 -0.78125,0.57813 -1.15625,2.04688 l -2.29687,-0.3125 q 0.3125,-1.46875 1.03125,-2.375 0.71875,-0.90625 2.0625,-1.39063 1.35937,-0.5 3.14062,-0.5 1.78125,0 2.875,0.42188 1.10938,0.42187 1.625,1.04687 0.53125,0.625 0.73438,1.59375 0.125,0.59375 0.125,2.15625 v 3.125 q 0,3.26563 0.14062,4.14063 0.15625,0.85937 0.59375,1.65625 h -2.4375 q -0.375,-0.73438 -0.46875,-1.70313 z m -0.20313,-5.23437 q -1.26562,0.51562 -3.82812,0.89062 -1.4375,0.20313 -2.04688,0.46875 -0.59375,0.25 -0.92187,0.75 -0.3125,0.5 -0.3125,1.125 0,0.9375 0.70312,1.5625 0.70313,0.625 2.07813,0.625 1.34375,0 2.39062,-0.59375 1.0625,-0.59375 1.5625,-1.625 0.375,-0.79687 0.375,-2.34375 z m 5.94994,6.9375 v -19.07813 h 2.34375 v 19.07813 z m 15.03154,0 v -2.03125 q -1.60938,2.34375 -4.375,2.34375 -1.23438,0 -2.29688,-0.46875 -1.0625,-0.46875 -1.57812,-1.17188 -0.5,-0.71875 -0.71875,-1.75 -0.14063,-0.6875 -0.14063,-2.1875 v -8.5625 h 2.34375 v 7.67188 q 0,1.82812 0.14063,2.46875 0.21875,0.92187 0.9375,1.45312 0.71875,0.53125 1.76562,0.53125 1.0625,0 1.98438,-0.53125 0.92187,-0.54687 1.29687,-1.46875 0.39063,-0.9375 0.39063,-2.71875 v -7.40625 h 2.34375 V 298.0055 Z M 105.75,296.30237 q -1.3125,1.10938 -2.51562,1.5625 -1.20313,0.45313 -2.57813,0.45313 -2.281251,0 -3.500001,-1.10938 -1.21875,-1.10937 -1.21875,-2.84375 0,-1.01562 0.45313,-1.85937 0.46875,-0.84375 1.21875,-1.34375 0.75,-0.51563 1.6875,-0.76563 0.6875,-0.1875 2.078121,-0.35937 2.82813,-0.32813 4.17188,-0.79688 0.0156,-0.48437 0.0156,-0.625 0,-1.42187 -0.65625,-2.01562 -0.90625,-0.79688 -2.67187,-0.79688 -1.65625,0 -2.453131,0.59375 -0.78125,0.57813 -1.15625,2.04688 l -2.29687,-0.3125 q 0.3125,-1.46875 1.03125,-2.375 0.71875,-0.90625 2.0625,-1.39063 1.359371,-0.5 3.140621,-0.5 1.78125,0 2.875,0.42188 1.10938,0.42187 1.625,1.04687 0.53125,0.625 0.73438,1.59375 0.125,0.59375 0.125,2.15625 v 3.125 q 0,3.26563 0.14062,4.14063 0.15625,0.85937 0.59375,1.65625 h -2.4375 q -0.375,-0.73438 -0.46875,-1.70313 z m -0.20312,-5.23437 q -1.26563,0.51562 -3.82813,0.89062 -1.4375,0.20313 -2.046871,0.46875 -0.59375,0.25 -0.92188,0.75 -0.3125,0.5 -0.3125,1.125 0,0.9375 0.70313,1.5625 0.70312,0.625 2.078121,0.625 1.34375,0 2.39063,-0.59375 1.0625,-0.59375 1.5625,-1.625 0.375,-0.79687 0.375,-2.34375 z m 11.12182,4.84375 0.32812,2.0625 q -0.98437,0.21875 -1.76562,0.21875 -1.26563,0 -1.96875,-0.40625 -0.70313,-0.40625 -1,-1.0625 -0.28125,-0.65625 -0.28125,-2.76563 v -7.95312 h -1.71875 v -1.82813 h 1.71875 v -3.42187 l 2.32812,-1.40625 v 4.82812 h 2.35938 v 1.82813 h -2.35938 v 8.07812 q 0,1 0.125,1.29688 0.125,0.28125 0.40625,0.45312 0.28125,0.17188 0.79688,0.17188 0.39062,0 1.03125,-0.0937 z m 11.74971,-2.35938 2.42187,0.29688 q -0.57812,2.125 -2.125,3.29687 -1.54687,1.17188 -3.95312,1.17188 -3.03125,0 -4.8125,-1.85938 -1.78125,-1.875 -1.78125,-5.25 0,-3.48437 1.79687,-5.40625 1.79688,-1.9375 4.67188,-1.9375 2.76562,0 4.51562,1.89063 1.76563,1.89062 1.76563,5.3125 0,0.20312 -0.0156,0.625 h -10.3125 q 0.14063,2.28125 1.29688,3.5 1.15625,1.20312 2.89062,1.20312 1.28125,0 2.1875,-0.67187 0.92188,-0.6875 1.45313,-2.17188 z m -7.6875,-3.78125 h 7.71875 q -0.15625,-1.75 -0.89063,-2.625 -1.125,-1.34375 -2.90625,-1.34375 -1.60937,0 -2.71875,1.07813 -1.09375,1.07812 -1.20312,2.89062 z" />
  <path
     style="fill:#000000;fill-rule:nonzero"
     inkscape:connector-curvature="0"
     id="path3821"
     d="m 149.63368,296.28676 q -1.21875,1.0625 -2.35938,1.54687 -1.125,0.48438 -2.42187,0.48438 -1.90625,0 -3.07813,-1.125 -1.17187,-1.125 -1.17187,-2.89063 0,-1.15625 0.51562,-2.04687 0.53125,-0.89063 1.40625,-1.42188 0.875,-0.54687 2.14063,-0.78125 0.79687,-0.15625 3.01562,-0.25 2.21875,-0.0937 3.17188,-0.46875 0.28125,-0.95312 0.28125,-1.59375 0,-0.82812 -0.59375,-1.29687 -0.82813,-0.64063 -2.40625,-0.64063 -1.48438,0 -2.42188,0.65625 -0.9375,0.65625 -1.375,1.85938 l -2.375,-0.20313 q 0.71875,-2.0625 2.29688,-3.15625 1.59375,-1.09375 4,-1.09375 2.5625,0 4.0625,1.23438 1.14062,0.90625 1.14062,2.35937 0,1.10938 -0.32812,2.5625 l -0.76563,3.4375 q -0.35937,1.64063 -0.35937,2.67188 0,0.65625 0.28125,1.875 h -2.375 q -0.20313,-0.67188 -0.28125,-1.71875 z m 0.875,-5.28125 q -0.5,0.1875 -1.0625,0.29687 -0.5625,0.10938 -1.89063,0.21875 -2.0625,0.1875 -2.90625,0.46875 -0.84375,0.28125 -1.28125,0.89063 -0.42187,0.60937 -0.42187,1.34375 0,1 0.67187,1.64062 0.6875,0.625 1.95313,0.625 1.17187,0 2.25,-0.60937 1.07812,-0.625 1.70312,-1.71875 0.625,-1.10938 0.98438,-3.15625 z m 14.16869,1.96875 2.35937,0.23437 q -0.89062,2.59375 -2.53125,3.85938 -1.625,1.25 -3.70312,1.25 -2.25,0 -3.65625,-1.45313 -1.39063,-1.46875 -1.39063,-4.07812 0,-2.26563 0.89063,-4.45313 0.90625,-2.1875 2.57812,-3.32812 1.67188,-1.14063 3.8125,-1.14063 2.23438,0 3.53125,1.26563 1.29688,1.25 1.29688,3.32812 l -2.3125,0.15625 q -0.0156,-1.32812 -0.76563,-2.0625 -0.75,-0.75 -1.96875,-0.75 -1.42187,0 -2.46875,0.90625 -1.03125,0.89063 -1.625,2.73438 -0.59375,1.82812 -0.59375,3.51562 0,1.76563 0.78125,2.65625 0.78125,0.875 1.9375,0.875 1.14063,0 2.1875,-0.85937 1.04688,-0.875 1.64063,-2.65625 z m 12.71875,3.46875 q -2.01563,1.875 -3.85938,1.875 -1.9375,0 -3.26562,-1.45313 -1.32813,-1.46875 -1.32813,-4.17187 0,-2.57813 1.01563,-4.65625 1.01562,-2.07813 2.57812,-3.125 1.5625,-1.04688 3.23438,-1.04688 1.26562,0 2.29687,0.71875 1.03125,0.70313 1.67188,2.14063 l 0.53125,-2.54688 h 2.03125 l -3.98438,19.125 h -2.35937 z m -6.10938,-4.0625 q 0,2.04687 0.84375,3.03125 0.84375,0.98437 2.10938,0.98437 1.0625,0 2.14062,-0.89062 1.09375,-0.89063 1.78125,-2.65625 0.70313,-1.76563 0.70313,-3.42188 0,-1.6875 -0.875,-2.65625 -0.85938,-0.96875 -2.125,-0.96875 -1.23438,0 -2.15625,0.8125 -1.21875,1.04688 -1.90625,3.01563 -0.51563,1.5 -0.51563,2.75 z m 21.44994,3.125 q -2.5,2.8125 -5.09375,2.8125 -1.60938,0 -2.59375,-0.90625 -0.96875,-0.92188 -0.96875,-2.25 0,-0.875 0.4375,-3 l 1.67187,-7.98438 h 2.34375 l -1.84375,8.84375 q -0.23437,1.10938 -0.23437,1.71875 0,0.78125 0.46875,1.21875 0.48437,0.4375 1.40625,0.4375 0.98437,0 1.92187,-0.48437 0.95313,-0.48438 1.64063,-1.29688 0.6875,-0.82812 1.10937,-1.95312 0.28125,-0.70313 0.67188,-2.5 l 1.25,-5.98438 h 2.34375 l -2.89063,13.82813 h -2.17187 z m 8.73118,-13.90625 0.5625,-2.67188 h 2.32813 l -0.54688,2.67188 z m -3.4375,16.40625 2.89063,-13.82813 h 2.35937 l -2.89062,13.82813 z m 6.23467,-4.71875 2.35937,-0.15625 q 0,1.01562 0.3125,1.73437 0.3125,0.71875 1.14063,1.17188 0.84375,0.45312 1.96875,0.45312 1.5625,0 2.34375,-0.625 0.78125,-0.625 0.78125,-1.46875 0,-0.60937 -0.46875,-1.15625 -0.48438,-0.54687 -2.35938,-1.34375 -1.85937,-0.79687 -2.39062,-1.125 -0.85938,-0.53125 -1.3125,-1.25 -0.4375,-0.73437 -0.4375,-1.67187 0,-1.64063 1.29687,-2.8125 1.3125,-1.17188 3.64063,-1.17188 2.60937,0 3.96875,1.20313 1.35937,1.20312 1.40625,3.17187 l -2.29688,0.15625 q -0.0469,-1.25 -0.89062,-1.96875 -0.82813,-0.73437 -2.34375,-0.73437 -1.23438,0 -1.90625,0.5625 -0.67188,0.5625 -0.67188,1.20312 0,0.65625 0.57813,1.15625 0.39062,0.32813 2.01562,1.03125 2.71875,1.17188 3.42188,1.84375 1.10937,1.09375 1.10937,2.64063 0,1.03125 -0.64062,2.01562 -0.625,0.98438 -1.92188,1.57813 -1.28125,0.59375 -3.04687,0.59375 -2.39063,0 -4.07813,-1.1875 -1.67187,-1.1875 -1.57812,-3.84375 z m 16.45312,-11.6875 0.5625,-2.67188 h 2.32813 l -0.54688,2.67188 z m -3.4375,16.40625 2.89063,-13.82813 h 2.35937 l -2.89062,13.82813 z m 11.51592,-1.90625 -0.39063,1.92187 q -0.84375,0.21875 -1.64062,0.21875 -1.40625,0 -2.23438,-0.6875 -0.625,-0.51562 -0.625,-1.42187 0,-0.45313 0.32813,-2.09375 l 1.6875,-8.03125 h -1.85938 l 0.375,-1.82813 h 1.85938 l 0.71875,-3.39062 2.6875,-1.625 -1.04688,5.01562 h 2.3125 l -0.39062,1.82813 h -2.29688 l -1.60937,7.64062 q -0.29688,1.45313 -0.29688,1.75 0,0.40625 0.23438,0.64063 0.25,0.21875 0.79687,0.21875 0.78125,0 1.39063,-0.15625 z m 5.24971,-14.5 0.5625,-2.67188 h 2.32812 l -0.54687,2.67188 z m -3.4375,16.40625 2.89062,-13.82813 h 2.35938 l -2.89063,13.82813 z m 6.42216,-5.25 q 0,-4.04688 2.39063,-6.70313 1.96875,-2.1875 5.15625,-2.1875 2.5,0 4.01562,1.5625 1.53125,1.5625 1.53125,4.21875 0,2.39063 -0.96875,4.4375 -0.95312,2.04688 -2.73437,3.14063 -1.76563,1.09375 -3.73438,1.09375 -1.60937,0 -2.9375,-0.6875 -1.32812,-0.6875 -2.03125,-1.95313 -0.6875,-1.26562 -0.6875,-2.92187 z m 2.35938,-0.23438 q 0,1.95313 0.9375,2.96875 0.9375,1 2.375,1 0.76562,0 1.5,-0.29687 0.75,-0.3125 1.375,-0.9375 0.64062,-0.625 1.09375,-1.42188 0.45312,-0.79687 0.71875,-1.71875 0.40625,-1.29687 0.40625,-2.48437 0,-1.875 -0.95313,-2.90625 -0.9375,-1.03125 -2.35937,-1.03125 -1.10938,0 -2.03125,0.53125 -0.90625,0.51562 -1.64063,1.53125 -0.73437,1.01562 -1.07812,2.375 -0.34375,1.34375 -0.34375,2.39062 z m 12.05931,5.48438 2.89062,-13.82813 h 2.125 l -0.5,2.40625 q 1.39063,-1.40625 2.59375,-2.0625 1.21875,-0.65625 2.48438,-0.65625 1.67187,0 2.625,0.92188 0.95312,0.90625 0.95312,2.42187 0,0.78125 -0.32812,2.42188 l -1.76563,8.375 H 260.184 l 1.82813,-8.76563 q 0.28125,-1.26562 0.28125,-1.875 0,-0.70312 -0.48438,-1.125 -0.46875,-0.4375 -1.375,-0.4375 -1.8125,0 -3.21875,1.3125 -1.40625,1.29688 -2.07812,4.45313 l -1.34375,6.4375 z m 22.5434,0 2.51562,-12 h -2.10937 l 0.375,-1.82813 h 2.10937 l 0.40625,-1.95312 q 0.3125,-1.48438 0.64063,-2.125 0.34375,-0.65625 1.07812,-1.07813 0.75,-0.42187 2.04688,-0.42187 0.89062,0 2.60937,0.375 l -0.4375,2.0625 q -1.20312,-0.3125 -2,-0.3125 -0.6875,0 -1.04687,0.34375 -0.35938,0.34375 -0.625,1.625 l -0.3125,1.48437 h 2.625 l -0.375,1.82813 h -2.625 l -2.51563,12 z m 16.53097,-2.5 q -2.5,2.8125 -5.09375,2.8125 -1.60937,0 -2.59375,-0.90625 -0.96875,-0.92188 -0.96875,-2.25 0,-0.875 0.4375,-3 l 1.67188,-7.98438 h 2.34375 l -1.84375,8.84375 q -0.23438,1.10938 -0.23438,1.71875 0,0.78125 0.46875,1.21875 0.48438,0.4375 1.40625,0.4375 0.98438,0 1.92188,-0.48437 0.95312,-0.48438 1.64062,-1.29688 0.6875,-0.82812 1.10938,-1.95312 0.28125,-0.70313 0.67187,-2.5 l 1.25,-5.98438 h 2.34375 l -2.89062,13.82813 h -2.17188 z m 5.38742,2.5 2.89063,-13.82813 h 2.125 l -0.5,2.40625 q 1.39062,-1.40625 2.59375,-2.0625 1.21875,-0.65625 2.48437,-0.65625 1.67188,0 2.625,0.92188 0.95313,0.90625 0.95313,2.42187 0,0.78125 -0.32813,2.42188 l -1.76562,8.375 h -2.34375 l 1.82812,-8.76563 q 0.28125,-1.26562 0.28125,-1.875 0,-0.70312 -0.48437,-1.125 -0.46875,-0.4375 -1.375,-0.4375 -1.8125,0 -3.21875,1.3125 -1.40625,1.29688 -2.07813,4.45313 l -1.34375,6.4375 z m 24.35617,-5.03125 2.35938,0.23437 q -0.89063,2.59375 -2.53125,3.85938 -1.625,1.25 -3.70313,1.25 -2.25,0 -3.65625,-1.45313 -1.39062,-1.46875 -1.39062,-4.07812 0,-2.26563 0.89062,-4.45313 0.90625,-2.1875 2.57813,-3.32812 1.67187,-1.14063 3.8125,-1.14063 2.23437,0 3.53125,1.26563 1.29687,1.25 1.29687,3.32812 l -2.3125,0.15625 q -0.0156,-1.32812 -0.76562,-2.0625 -0.75,-0.75 -1.96875,-0.75 -1.42188,0 -2.46875,0.90625 -1.03125,0.89063 -1.625,2.73438 -0.59375,1.82812 -0.59375,3.51562 0,1.76563 0.78125,2.65625 0.78125,0.875 1.9375,0.875 1.14062,0 2.1875,-0.85937 1.04687,-0.875 1.64062,-2.65625 z m 9.29688,3.125 -0.39063,1.92187 q -0.84375,0.21875 -1.64062,0.21875 -1.40625,0 -2.23438,-0.6875 -0.625,-0.51562 -0.625,-1.42187 0,-0.45313 0.32813,-2.09375 l 1.6875,-8.03125 h -1.85938 l 0.375,-1.82813 h 1.85938 l 0.71875,-3.39062 2.6875,-1.625 -1.04688,5.01562 h 2.3125 l -0.39062,1.82813 h -2.29688 l -1.60937,7.64062 q -0.29688,1.45313 -0.29688,1.75 0,0.40625 0.23438,0.64063 0.25,0.21875 0.79687,0.21875 0.78125,0 1.39063,-0.15625 z m 5.24972,-14.5 0.5625,-2.67188 h 2.32813 l -0.54688,2.67188 z m -3.4375,16.40625 2.89063,-13.82813 h 2.35937 l -2.89062,13.82813 z m 6.42215,-5.25 q 0,-4.04688 2.39063,-6.70313 1.96875,-2.1875 5.15625,-2.1875 2.5,0 4.01562,1.5625 1.53125,1.5625 1.53125,4.21875 0,2.39063 -0.96875,4.4375 -0.95312,2.04688 -2.73437,3.14063 -1.76563,1.09375 -3.73438,1.09375 -1.60937,0 -2.9375,-0.6875 -1.32812,-0.6875 -2.03125,-1.95313 -0.6875,-1.26562 -0.6875,-2.92187 z m 2.35938,-0.23438 q 0,1.95313 0.9375,2.96875 0.9375,1 2.375,1 0.76562,0 1.5,-0.29687 0.75,-0.3125 1.375,-0.9375 0.64062,-0.625 1.09375,-1.42188 0.45312,-0.79687 0.71875,-1.71875 0.40625,-1.29687 0.40625,-2.48437 0,-1.875 -0.95313,-2.90625 -0.9375,-1.03125 -2.35937,-1.03125 -1.10938,0 -2.03125,0.53125 -0.90625,0.51562 -1.64063,1.53125 -0.73437,1.01562 -1.07812,2.375 -0.34375,1.34375 -0.34375,2.39062 z m 12.05932,5.48438 2.89063,-13.82813 h 2.125 l -0.5,2.40625 q 1.39062,-1.40625 2.59375,-2.0625 1.21875,-0.65625 2.48437,-0.65625 1.67188,0 2.625,0.92188 0.95313,0.90625 0.95313,2.42187 0,0.78125 -0.32813,2.42188 l -1.76562,8.375 h -2.34375 l 1.82812,-8.76563 q 0.28125,-1.26562 0.28125,-1.875 0,-0.70312 -0.48437,-1.125 -0.46875,-0.4375 -1.375,-0.4375 -1.8125,0 -3.21875,1.3125 -1.40625,1.29688 -2.07813,4.45313 l -1.34375,6.4375 z" />
  <path
     style="fill:#000000;fill-rule:nonzero"
     inkscape:connector-curvature="0"
     id="path3823"
     d="m 27.721939,323.09926 q 0,-3.84375 2.125,-5.6875 1.78125,-1.54688 4.34375,-1.54688 2.85938,0 4.65625,1.875 1.8125,1.85938 1.8125,5.15625 0,2.67188 -0.79687,4.20313 -0.79688,1.53125 -2.32813,2.375 -1.53125,0.84375 -3.34375,0.84375 -2.89062,0 -4.6875,-1.85938 -1.78125,-1.85937 -1.78125,-5.35937 z m 2.40625,0 q 0,2.65625 1.15625,3.98437 1.15625,1.3125 2.90625,1.3125 1.75,0 2.90625,-1.32812 1.15625,-1.32813 1.15625,-4.04688 0,-2.5625 -1.17187,-3.89062 -1.15625,-1.32813 -2.89063,-1.32813 -1.75,0 -2.90625,1.32813 -1.15625,1.3125 -1.15625,3.96875 z m 13.27806,6.90625 v -13.82813 h 2.10938 v 1.96875 q 1.53125,-2.28125 4.40625,-2.28125 1.25,0 2.29687,0.45313 1.04688,0.45312 1.5625,1.1875 0.53125,0.71875 0.73438,1.71875 0.125,0.65625 0.125,2.28125 v 8.5 h -2.34375 v -8.40625 q 0,-1.4375 -0.28125,-2.14063 -0.26563,-0.71875 -0.96875,-1.14062 -0.6875,-0.42188 -1.625,-0.42188 -1.48438,0 -2.57813,0.95313 -1.09375,0.95312 -1.09375,3.60937 v 7.54688 z" />
  <path
     style="fill:#000000;fill-rule:nonzero"
     inkscape:connector-curvature="0"
     id="path3825"
     d="m 74.902769,330.0055 v -2.0625 q -0.76562,1.09375 -2,1.73437 -1.21875,0.64063 -2.57812,0.64063 -1.40625,0 -2.51563,-0.60938 -1.09375,-0.60937 -1.59375,-1.71875 -0.5,-1.10937 -0.5,-3.0625 v -8.75 h 3.67188 v 6.35938 q 0,2.90625 0.1875,3.57812 0.20312,0.65625 0.73437,1.04688 0.54688,0.375 1.35938,0.375 0.9375,0 1.67187,-0.51563 0.75,-0.51562 1.01563,-1.28125 0.28125,-0.76562 0.28125,-3.71875 v -5.84375 h 3.65625 v 13.82813 z m 19.75145,0 h -3.65625 v -7.04688 q 0,-2.25 -0.23437,-2.90625 -0.23438,-0.65625 -0.76563,-1.01562 -0.51562,-0.375 -1.26562,-0.375 -0.95313,0 -1.70313,0.53125 -0.75,0.51562 -1.03125,1.375 -0.28125,0.85937 -0.28125,3.17187 v 6.26563 h -3.65625 v -13.82813 h 3.39063 v 2.03125 q 1.8125,-2.34375 4.5625,-2.34375 1.20312,0 2.20312,0.4375 1.01563,0.4375 1.51563,1.125 0.51562,0.67188 0.71875,1.53125 0.20312,0.85938 0.20312,2.45313 z m 3.70457,0 v -19.07813 h 3.671881 v 19.07813 z m 10.140341,-9.60938 -3.3125,-0.59375 q 0.5625,-2 1.92187,-2.96875 1.375,-0.96875 4.06251,-0.96875 2.45313,0 3.64063,0.57813 1.20312,0.57812 1.6875,1.48437 0.5,0.89063 0.5,3.26563 l -0.0469,4.26562 q 0,1.82813 0.17188,2.70313 0.17187,0.85937 0.65625,1.84375 h -3.60938 q -0.14062,-0.35938 -0.35937,-1.07813 -0.0937,-0.32812 -0.125,-0.4375 -0.9375,0.92188 -2.01563,1.375 -1.0625,0.45313 -2.26563,0.45313 -2.14063,0 -3.375,-1.15625 -1.21875,-1.15625 -1.21875,-2.9375 0,-1.17188 0.54687,-2.07813 0.5625,-0.92187 1.57813,-1.40625 1.01562,-0.48437 2.90626,-0.85937 2.5625,-0.48438 3.5625,-0.89063 v -0.375 q 0,-1.04687 -0.53125,-1.5 -0.51563,-0.45312 -1.96875,-0.45312 -0.96875,0 -1.51564,0.39062 -0.54687,0.39063 -0.89062,1.34375 z m 4.90626,2.96875 q -0.70313,0.23438 -2.23438,0.5625 -1.51562,0.32813 -1.98438,0.64063 -0.71875,0.5 -0.71875,1.28125 0,0.76562 0.5625,1.32812 0.57813,0.5625 1.46876,0.5625 0.98437,0 1.89062,-0.65625 0.65625,-0.48437 0.85938,-1.20312 0.15625,-0.46875 0.15625,-1.78125 z m 7.02806,6.64063 v -19.07813 h 3.67188 v 6.875 q 1.6875,-1.9375 4,-1.9375 2.53125,0 4.17187,1.82813 1.65625,1.82812 1.65625,5.26562 0,3.53125 -1.6875,5.45313 -1.67187,1.90625 -4.09375,1.90625 -1.17187,0 -2.32812,-0.59375 -1.15625,-0.59375 -1.98438,-1.75 v 2.03125 z m 3.64063,-7.20313 q 0,2.14063 0.67187,3.17188 0.95313,1.45312 2.53125,1.45312 1.20313,0 2.04688,-1.03125 0.85937,-1.03125 0.85937,-3.26562 0,-2.35938 -0.85937,-3.40625 -0.85938,-1.0625 -2.1875,-1.0625 -1.32813,0 -2.20313,1.03125 -0.85937,1.01562 -0.85937,3.10937 z m 20.81395,2.79688 3.64062,0.625 q -0.70312,2 -2.21875,3.04687 -1.51562,1.04688 -3.79687,1.04688 -3.60938,0 -5.32813,-2.35938 -1.375,-1.89062 -1.375,-4.76562 0,-3.4375 1.79688,-5.375 1.79687,-1.95313 4.54687,-1.95313 3.07813,0 4.85938,2.04688 1.78125,2.03125 1.70312,6.23437 h -9.15625 q 0.0469,1.625 0.89063,2.53125 0.84375,0.90625 2.10937,0.90625 0.85938,0 1.4375,-0.46875 0.59375,-0.46875 0.89063,-1.51562 z m 0.20312,-3.6875 q -0.0312,-1.59375 -0.8125,-2.42188 -0.78125,-0.82812 -1.90625,-0.82812 -1.20312,0 -1.98437,0.875 -0.78125,0.875 -0.76563,2.375 z m 6.60619,8.09375 v -19.07813 h 3.67187 v 19.07813 z m 7.40596,0 v -19.07813 h 3.67187 v 19.07813 z m 15.42158,-4.40625 3.64063,0.625 q -0.70313,2 -2.21875,3.04687 -1.51563,1.04688 -3.79688,1.04688 -3.60937,0 -5.32812,-2.35938 -1.375,-1.89062 -1.375,-4.76562 0,-3.4375 1.79687,-5.375 1.79688,-1.95313 4.54688,-1.95313 3.07812,0 4.85937,2.04688 1.78125,2.03125 1.70313,6.23437 h -9.15625 q 0.0469,1.625 0.89062,2.53125 0.84375,0.90625 2.10938,0.90625 0.85937,0 1.4375,-0.46875 0.59375,-0.46875 0.89062,-1.51562 z m 0.20313,-3.6875 q -0.0312,-1.59375 -0.8125,-2.42188 -0.78125,-0.82812 -1.90625,-0.82812 -1.20313,0 -1.98438,0.875 -0.78125,0.875 -0.76562,2.375 z m 19.29368,8.09375 h -3.40625 v -2.03125 q -0.84375,1.1875 -2,1.76562 -1.14062,0.57813 -2.3125,0.57813 -2.39062,0 -4.09375,-1.92188 -1.6875,-1.92187 -1.6875,-5.35937 0,-3.51563 1.65625,-5.34375 1.65625,-1.82813 4.17188,-1.82813 2.3125,0 4.01562,1.9375 v -6.875 h 3.65625 z m -9.76562,-7.20313 q 0,2.20313 0.60937,3.1875 0.89063,1.4375 2.46875,1.4375 1.26563,0 2.15625,-1.0625 0.89063,-1.07812 0.89063,-3.21875 0,-2.375 -0.85938,-3.42187 -0.85937,-1.0625 -2.20312,-1.0625 -1.29688,0 -2.1875,1.04687 -0.875,1.03125 -0.875,3.09375 z" />
  <path
     style="fill:#000000;fill-rule:nonzero"
     inkscape:connector-curvature="0"
     id="path3827"
     d="m 204.8666,335.30238 v -19.125 h 2.14062 v 1.79687 q 0.75,-1.04687 1.70313,-1.57812 0.95312,-0.53125 2.3125,-0.53125 1.76562,0 3.10937,0.92187 1.35938,0.90625 2.04688,2.5625 0.6875,1.65625 0.6875,3.64063 0,2.125 -0.76563,3.82812 -0.75,1.6875 -2.20312,2.59375 -1.45313,0.90625 -3.04688,0.90625 -1.17187,0 -2.10937,-0.48437 -0.92188,-0.5 -1.53125,-1.26563 v 6.73438 z m 2.125,-12.125 q 0,2.65625 1.07812,3.9375 1.09375,1.28125 2.625,1.28125 1.5625,0 2.67188,-1.3125 1.10937,-1.32813 1.10937,-4.10938 0,-2.64062 -1.09375,-3.95312 -1.07812,-1.3125 -2.59375,-1.3125 -1.48437,0 -2.64062,1.40625 -1.15625,1.39062 -1.15625,4.0625 z m 11.84056,-0.0781 q 0,-3.84375 2.125,-5.6875 1.78125,-1.54687 4.34375,-1.54687 2.85938,0 4.65625,1.875 1.8125,1.85937 1.8125,5.15625 0,2.67187 -0.79687,4.20312 -0.79688,1.53125 -2.32813,2.375 -1.53125,0.84375 -3.34375,0.84375 -2.89062,0 -4.6875,-1.85937 -1.78125,-1.85938 -1.78125,-5.35938 z m 2.40625,0 q 0,2.65625 1.15625,3.98438 1.15625,1.3125 2.90625,1.3125 1.75,0 2.90625,-1.32813 1.15625,-1.32812 1.15625,-4.04687 0,-2.5625 -1.17187,-3.89063 -1.15625,-1.32812 -2.89063,-1.32812 -1.75,0 -2.90625,1.32812 -1.15625,1.3125 -1.15625,3.96875 z m 12.41869,0 q 0,-3.84375 2.125,-5.6875 1.78125,-1.54687 4.34375,-1.54687 2.85937,0 4.65625,1.875 1.8125,1.85937 1.8125,5.15625 0,2.67187 -0.79688,4.20312 -0.79687,1.53125 -2.32812,2.375 -1.53125,0.84375 -3.34375,0.84375 -2.89063,0 -4.6875,-1.85937 -1.78125,-1.85938 -1.78125,-5.35938 z m 2.40625,0 q 0,2.65625 1.15625,3.98438 1.15625,1.3125 2.90625,1.3125 1.75,0 2.90625,-1.32813 1.15625,-1.32812 1.15625,-4.04687 0,-2.5625 -1.17188,-3.89063 -1.15625,-1.32812 -2.89062,-1.32812 -1.75,0 -2.90625,1.32812 -1.15625,1.3125 -1.15625,3.96875 z m 13.23118,6.90625 v -19.07812 h 2.34375 v 19.07812 z m 12.4375,-4.125 2.32813,-0.35937 q 0.1875,1.39062 1.07812,2.14062 0.89063,0.73438 2.5,0.73438 1.60938,0 2.39063,-0.65625 0.78125,-0.65625 0.78125,-1.54688 0,-0.79687 -0.6875,-1.25 -0.48438,-0.3125 -2.39063,-0.79687 -2.57812,-0.65625 -3.57812,-1.125 -1,-0.46875 -1.51563,-1.3125 -0.51562,-0.84375 -0.51562,-1.85938 0,-0.92187 0.42187,-1.70312 0.4375,-0.79688 1.15625,-1.3125 0.54688,-0.40625 1.48438,-0.6875 0.95312,-0.28125 2.03125,-0.28125 1.625,0 2.85937,0.46875 1.23438,0.46875 1.8125,1.28125 0.59375,0.79687 0.8125,2.14062 l -2.29687,0.3125 q -0.15625,-1.07812 -0.90625,-1.67187 -0.75,-0.59375 -2.10938,-0.59375 -1.60937,0 -2.3125,0.53125 -0.6875,0.53125 -0.6875,1.25 0,0.45312 0.29688,0.8125 0.28125,0.375 0.89062,0.625 0.35938,0.14062 2.07813,0.60937 2.48437,0.65625 3.46875,1.07813 0.98437,0.42187 1.53125,1.23437 0.5625,0.79688 0.5625,2 0,1.17188 -0.6875,2.21875 -0.67188,1.03125 -1.96875,1.59375 -1.28125,0.5625 -2.90625,0.5625 -2.70313,0 -4.125,-1.10937 -1.40625,-1.125 -1.79688,-3.32813 z m 23.73438,-0.32812 2.42187,0.29687 q -0.57812,2.125 -2.125,3.29688 -1.54687,1.17187 -3.95312,1.17187 -3.03125,0 -4.8125,-1.85937 -1.78125,-1.875 -1.78125,-5.25 0,-3.48438 1.79687,-5.40625 1.79688,-1.9375 4.67188,-1.9375 2.76562,0 4.51562,1.89062 1.76563,1.89063 1.76563,5.3125 0,0.20313 -0.0156,0.625 h -10.3125 q 0.14063,2.28125 1.29688,3.5 1.15625,1.20313 2.89062,1.20313 1.28125,0 2.1875,-0.67188 0.92188,-0.6875 1.45313,-2.17187 z m -7.6875,-3.78125 h 7.71875 q -0.15625,-1.75 -0.89063,-2.625 -1.125,-1.34375 -2.90625,-1.34375 -1.60937,0 -2.71875,1.07812 -1.09375,1.07813 -1.20312,2.89063 z m 18.16867,6.14062 0.32812,2.0625 q -0.98437,0.21875 -1.76562,0.21875 -1.26563,0 -1.96875,-0.40625 -0.70313,-0.40625 -1,-1.0625 -0.28125,-0.65625 -0.28125,-2.76562 v -7.95316 h -1.71875 v -1.82812 h 1.71875 v -3.42188 l 2.32812,-1.40625 v 4.82813 h 2.35938 v 1.82812 h -2.35938 v 8.07813 q 0,1 0.125,1.29687 0.125,0.28125 0.40625,0.45313 0.28125,0.17187 0.79688,0.17187 0.39062,0 1.03125,-0.0937 z m 18.74945,2.09375 v -2.03125 q -1.60938,2.34375 -4.375,2.34375 -1.23438,0 -2.29688,-0.46875 -1.0625,-0.46875 -1.57812,-1.17187 -0.5,-0.71875 -0.71875,-1.75 -0.14063,-0.6875 -0.14063,-2.1875 v -8.5625 h 2.34375 v 7.67187 q 0,1.82813 0.14063,2.46875 0.21875,0.92188 0.9375,1.45313 0.71875,0.53125 1.76562,0.53125 1.0625,0 1.98438,-0.53125 0.92187,-0.54688 1.29687,-1.46875 0.39063,-0.9375 0.39063,-2.71875 v -7.40625 h 2.34375 v 13.82812 z m 4.82492,-4.125 2.32812,-0.35937 q 0.1875,1.39062 1.07813,2.14062 0.89062,0.73438 2.5,0.73438 1.60937,0 2.39062,-0.65625 0.78125,-0.65625 0.78125,-1.54688 0,-0.79687 -0.6875,-1.25 -0.48437,-0.3125 -2.39062,-0.79687 -2.57813,-0.65625 -3.57813,-1.125 -1,-0.46875 -1.51562,-1.3125 -0.51563,-0.84375 -0.51563,-1.85938 0,-0.92187 0.42188,-1.70312 0.4375,-0.79688 1.15625,-1.3125 0.54687,-0.40625 1.48437,-0.6875 0.95313,-0.28125 2.03125,-0.28125 1.625,0 2.85938,0.46875 1.23437,0.46875 1.8125,1.28125 0.59375,0.79687 0.8125,2.14062 l -2.29688,0.3125 q -0.15625,-1.07812 -0.90625,-1.67187 -0.75,-0.59375 -2.10937,-0.59375 -1.60938,0 -2.3125,0.53125 -0.6875,0.53125 -0.6875,1.25 0,0.45312 0.29687,0.8125 0.28125,0.375 0.89063,0.625 0.35937,0.14062 2.07812,0.60937 2.48438,0.65625 3.46875,1.07813 0.98438,0.42187 1.53125,1.23437 0.5625,0.79688 0.5625,2 0,1.17188 -0.6875,2.21875 -0.67187,1.03125 -1.96875,1.59375 -1.28125,0.5625 -2.90625,0.5625 -2.70312,0 -4.125,-1.10937 -1.40625,-1.125 -1.79687,-3.32813 z m 14.28125,-12.26562 v -2.6875 h 2.34375 v 2.6875 z m 0,16.39062 v -13.82812 h 2.34375 v 13.82812 z m 5.90652,0 v -13.82812 h 2.10938 v 1.96875 q 1.53125,-2.28125 4.40625,-2.28125 1.25,0 2.29687,0.45312 1.04688,0.45313 1.5625,1.1875 0.53125,0.71875 0.73438,1.71875 0.125,0.65625 0.125,2.28125 v 8.5 h -2.34375 v -8.40625 q 0,-1.4375 -0.28125,-2.14062 -0.26563,-0.71875 -0.96875,-1.14063 -0.6875,-0.42187 -1.625,-0.42187 -1.48438,0 -2.57813,0.95312 -1.09375,0.95313 -1.09375,3.60938 v 7.54687 z m 14.40308,1.14063 2.28125,0.34375 q 0.14062,1.04687 0.79687,1.53125 0.85938,0.65625 2.375,0.65625 1.625,0 2.5,-0.65625 0.89063,-0.64063 1.20313,-1.8125 0.1875,-0.71875 0.17187,-3.01563 -1.53125,1.8125 -3.82812,1.8125 -2.84375,0 -4.40625,-2.04687 -1.5625,-2.0625 -1.5625,-4.9375 0,-1.98438 0.71875,-3.65625 0.71875,-1.67188 2.07812,-2.57813 1.35938,-0.92187 3.1875,-0.92187 2.45313,0 4.03125,1.98437 v -1.67187 h 2.17188 v 11.95312 q 0,3.23438 -0.65625,4.57813 -0.65625,1.34375 -2.09375,2.125 -1.42188,0.78125 -3.5,0.78125 -2.46875,0 -4,-1.10938 -1.51563,-1.10937 -1.46875,-3.35937 z m 1.9375,-8.29688 q 0,2.71875 1.07812,3.96875 1.07813,1.25 2.70313,1.25 1.625,0 2.71875,-1.23437 1.09375,-1.25 1.09375,-3.90625 0,-2.54688 -1.125,-3.82813 -1.125,-1.29687 -2.71875,-1.29687 -1.5625,0 -2.65625,1.28125 -1.09375,1.26562 -1.09375,3.76562 z" />
  <path
     style="fill:#000000;fill-rule:nonzero"
     inkscape:connector-curvature="0"
     id="path3829"
     d="m 145.56367,359.91176 0.32812,2.0625 q -0.98437,0.21875 -1.76562,0.21875 -1.26563,0 -1.96875,-0.40625 -0.70313,-0.40625 -1,-1.0625 -0.28125,-0.65625 -0.28125,-2.76563 v -7.95312 h -1.71875 v -1.82813 h 1.71875 v -3.42187 l 2.32812,-1.40625 v 4.82812 h 2.35938 v 1.82813 h -2.35938 v 8.07812 q 0,1 0.125,1.29688 0.125,0.28125 0.40625,0.45312 0.28125,0.17188 0.79688,0.17188 0.39062,0 1.03125,-0.0937 z m 2.28096,2.09375 v -19.07813 h 2.34375 v 6.84375 q 1.64062,-1.90625 4.14062,-1.90625 1.54688,0 2.67188,0.60938 1.14062,0.60937 1.625,1.67187 0.48437,1.0625 0.48437,3.09375 v 8.76563 h -2.34375 v -8.76563 q 0,-1.75 -0.76562,-2.54687 -0.75,-0.8125 -2.15625,-0.8125 -1.03125,0 -1.95313,0.54687 -0.92187,0.54688 -1.3125,1.46875 -0.39062,0.92188 -0.39062,2.54688 v 7.5625 z m 24.29369,-4.45313 2.42187,0.29688 q -0.57812,2.125 -2.125,3.29687 -1.54687,1.17188 -3.95312,1.17188 -3.03125,0 -4.8125,-1.85938 -1.78125,-1.875 -1.78125,-5.25 0,-3.48437 1.79687,-5.40625 1.79688,-1.9375 4.67188,-1.9375 2.76562,0 4.51562,1.89063 1.76563,1.89062 1.76563,5.3125 0,0.20312 -0.0156,0.625 h -10.3125 q 0.14063,2.28125 1.29688,3.5 1.15625,1.20312 2.89062,1.20312 1.28125,0 2.1875,-0.67187 0.92188,-0.6875 1.45313,-2.17188 z m -7.6875,-3.78125 h 7.71875 q -0.15625,-1.75 -0.89063,-2.625 -1.125,-1.34375 -2.90625,-1.34375 -1.60937,0 -2.71875,1.07813 -1.09375,1.07812 -1.20312,2.89062 z m 20.44964,8.23438 v -13.82813 h 2.10938 v 1.9375 q 0.64062,-1.01562 1.71875,-1.625 1.09375,-0.625 2.46875,-0.625 1.53125,0 2.51562,0.64063 0.98438,0.64062 1.39063,1.78125 1.64062,-2.42188 4.26562,-2.42188 2.0625,0 3.15625,1.14063 1.10938,1.14062 1.10938,3.51562 v 9.48438 h -2.32813 v -8.70313 q 0,-1.40625 -0.23437,-2.01562 -0.21875,-0.625 -0.82813,-1 -0.59375,-0.39063 -1.39062,-0.39063 -1.46875,0 -2.4375,0.96875 -0.95313,0.96875 -0.95313,3.10938 v 8.03125 h -2.34375 v -8.98438 q 0,-1.5625 -0.57812,-2.34375 -0.5625,-0.78125 -1.875,-0.78125 -0.98438,0 -1.82813,0.53125 -0.82812,0.51563 -1.21875,1.51563 -0.375,1 -0.375,2.89062 v 7.17188 z m 21.34549,-6.90625 q 0,-3.84375 2.125,-5.6875 1.78125,-1.54688 4.34375,-1.54688 2.85938,0 4.65625,1.875 1.8125,1.85938 1.8125,5.15625 0,2.67188 -0.79687,4.20313 -0.79688,1.53125 -2.32813,2.375 -1.53125,0.84375 -3.34375,0.84375 -2.89062,0 -4.6875,-1.85938 -1.78125,-1.85937 -1.78125,-5.35937 z m 2.40625,0 q 0,2.65625 1.15625,3.98437 1.15625,1.3125 2.90625,1.3125 1.75,0 2.90625,-1.32812 1.15625,-1.32813 1.15625,-4.04688 0,-2.5625 -1.17187,-3.89062 -1.15625,-1.32813 -2.89063,-1.32813 -1.75,0 -2.90625,1.32813 -1.15625,1.3125 -1.15625,3.96875 z m 22.24681,6.90625 v -1.75 q -1.3125,2.0625 -3.85937,2.0625 -1.65625,0 -3.04688,-0.90625 -1.375,-0.92188 -2.14062,-2.54688 -0.76563,-1.64062 -0.76563,-3.75 0,-2.07812 0.6875,-3.76562 0.70313,-1.6875 2.07813,-2.57813 1.375,-0.90625 3.07812,-0.90625 1.25,0 2.21875,0.53125 0.98438,0.53125 1.59375,1.375 v -6.84375 h 2.34375 v 19.07813 z m -7.40625,-6.89063 q 0,2.64063 1.125,3.96875 1.125,1.3125 2.64063,1.3125 1.53125,0 2.60937,-1.25 1.07813,-1.26562 1.07813,-3.84375 0,-2.84375 -1.09375,-4.17187 -1.09375,-1.32813 -2.70313,-1.32813 -1.54687,0 -2.60937,1.28125 -1.04688,1.28125 -1.04688,4.03125 z m 22.73119,2.4375 2.42187,0.29688 q -0.57812,2.125 -2.125,3.29687 -1.54687,1.17188 -3.95312,1.17188 -3.03125,0 -4.8125,-1.85938 -1.78125,-1.875 -1.78125,-5.25 0,-3.48437 1.79687,-5.40625 1.79688,-1.9375 4.67188,-1.9375 2.76562,0 4.51562,1.89063 1.76563,1.89062 1.76563,5.3125 0,0.20312 -0.0156,0.625 h -10.3125 q 0.14063,2.28125 1.29688,3.5 1.15625,1.20312 2.89062,1.20312 1.28125,0 2.1875,-0.67187 0.92188,-0.6875 1.45313,-2.17188 z m -7.6875,-3.78125 h 7.71875 q -0.15625,-1.75 -0.89063,-2.625 -1.125,-1.34375 -2.90625,-1.34375 -1.60937,0 -2.71875,1.07813 -1.09375,1.07812 -1.20312,2.89062 z m 12.99681,8.23438 v -19.07813 h 2.34373 v 19.07813 z" />
  <path
     style="fill:#000000;fill-opacity:0;fill-rule:evenodd"
     inkscape:connector-curvature="0"
     id="path3831"
     d="m 10.448819,448.27464 v 0 c 0,-9.7442 7.89922,-17.6434 17.6434,-17.6434 H 362.31722 c 4.67932,0 9.167,1.85885 12.47577,5.16763 3.30878,3.30878 5.16764,7.79645 5.16764,12.47577 v 70.57144 c 0,9.7442 -7.89924,17.64343 -17.64341,17.64343 H 28.092219 c -9.74418,0 -17.6434,-7.89923 -17.6434,-17.64343 z" />
  <path
     style="fill-rule:evenodd;stroke:#000000;stroke-width:2;stroke-linecap:butt;stroke-linejoin:round"
     inkscape:connector-curvature="0"
     id="path3833"
     d="m 10.448819,448.27464 v 0 c 0,-9.7442 7.89922,-17.6434 17.6434,-17.6434 H 362.31722 c 4.67932,0 9.167,1.85885 12.47577,5.16763 3.30878,3.30878 5.16764,7.79645 5.16764,12.47577 v 70.57144 c 0,9.7442 -7.89924,17.64343 -17.64341,17.64343 H 28.092219 c -9.74418,0 -17.6434,-7.89923 -17.6434,-17.64343 z" />
  <path
     style="fill:#000000;fill-rule:nonzero"
     inkscape:connector-curvature="0"
     id="path3835"
     d="m 49.884739,461.16035 v -19.07812 h 13.79687 v 2.25 h -11.26562 v 5.84375 h 10.54687 v 2.23437 h -10.54687 v 6.5 h 11.70312 v 2.25 z m 15.85763,0 5.0625,-7.1875 -4.67188,-6.64062 h 2.92188 l 2.125,3.25 q 0.59375,0.92187 0.96875,1.54687 0.5625,-0.85937 1.04687,-1.53125 l 2.32813,-3.26562 h 2.79687 l -4.78125,6.51562 5.15625,7.3125 h -2.89062 l -2.82813,-4.29687 -0.75,-1.15625 -3.64062,5.45312 z m 14.89062,5.29688 v -19.125 h 2.14063 v 1.79687 q 0.75,-1.04687 1.70312,-1.57812 0.95313,-0.53125 2.3125,-0.53125 1.76563,0 3.10938,0.92187 1.35937,0.90625 2.04687,2.5625 0.6875,1.65625 0.6875,3.64063 0,2.125 -0.76562,3.82812 -0.75,1.6875 -2.20313,2.59375 -1.45312,0.90625 -3.04687,0.90625 -1.17188,0 -2.10938,-0.48437 -0.92187,-0.5 -1.53125,-1.26563 v 6.73438 z m 2.125,-12.125 q 0,2.65625 1.07813,3.9375 1.09375,1.28125 2.625,1.28125 1.5625,0 2.67187,-1.3125 1.10938,-1.32813 1.10938,-4.10938 0,-2.64062 -1.09375,-3.95312 -1.07813,-1.3125 -2.59375,-1.3125 -1.48438,0 -2.64063,1.40625 -1.15625,1.39062 -1.15625,4.0625 z m 22.168691,2.375 2.42187,0.29687 q -0.57812,2.125 -2.125,3.29688 -1.54687,1.17187 -3.95312,1.17187 -3.031251,0 -4.812501,-1.85937 -1.78125,-1.875 -1.78125,-5.25 0,-3.48438 1.79687,-5.40625 1.79688,-1.9375 4.671881,-1.9375 2.76562,0 4.51562,1.89062 1.76563,1.89063 1.76563,5.3125 0,0.20313 -0.0156,0.625 H 97.098579 q 0.14063,2.28125 1.29688,3.5 1.15625,1.20313 2.890621,1.20313 1.28125,0 2.1875,-0.67188 0.92188,-0.6875 1.45313,-2.17187 z m -7.687501,-3.78125 h 7.718751 q -0.15625,-1.75 -0.89063,-2.625 -1.125,-1.34375 -2.90625,-1.34375 -1.609371,0 -2.718751,1.07812 -1.09375,1.07813 -1.20312,2.89063 z m 13.028071,8.23437 v -13.82812 h 2.10937 v 2.09375 q 0.79688,-1.46875 1.48438,-1.9375 0.6875,-0.46875 1.5,-0.46875 1.1875,0 2.40625,0.76562 l -0.79688,2.17188 q -0.85937,-0.51563 -1.71875,-0.51563 -0.76562,0 -1.39062,0.46875 -0.60938,0.45313 -0.85938,1.28125 -0.39062,1.25 -0.39062,2.73438 v 7.23437 z m 14.01737,-2.09375 0.32812,2.0625 q -0.98438,0.21875 -1.76563,0.21875 -1.26562,0 -1.96875,-0.40625 -0.70312,-0.40625 -1,-1.0625 -0.28125,-0.65625 -0.28125,-2.76562 v -7.95313 h -1.71875 v -1.82812 h 1.71875 v -3.42188 l 2.32813,-1.40625 v 4.82813 h 2.35938 v 1.82812 h -2.35938 v 8.07813 q 0,1 0.125,1.29687 0.125,0.28125 0.40625,0.45313 0.28125,0.17187 0.79687,0.17187 0.39063,0 1.03126,-0.0937 z m 1.34346,-2.03125 2.32812,-0.35937 q 0.1875,1.39062 1.07813,2.14062 0.89062,0.73438 2.5,0.73438 1.60937,0 2.39062,-0.65625 0.78125,-0.65625 0.78125,-1.54688 0,-0.79687 -0.6875,-1.25 -0.48437,-0.3125 -2.39062,-0.79687 -2.57813,-0.65625 -3.57813,-1.125 -1,-0.46875 -1.51562,-1.3125 -0.51563,-0.84375 -0.51563,-1.85938 0,-0.92187 0.42188,-1.70312 0.4375,-0.79688 1.15625,-1.3125 0.54687,-0.40625 1.48437,-0.6875 0.95313,-0.28125 2.03125,-0.28125 1.625,0 2.85938,0.46875 1.23437,0.46875 1.8125,1.28125 0.59375,0.79687 0.8125,2.14062 l -2.29688,0.3125 q -0.15625,-1.07812 -0.90625,-1.67187 -0.75,-0.59375 -2.10937,-0.59375 -1.60938,0 -2.3125,0.53125 -0.6875,0.53125 -0.6875,1.25 0,0.45312 0.29687,0.8125 0.28125,0.375 0.89063,0.625 0.35937,0.14062 2.07812,0.60937 2.48438,0.65625 3.46875,1.07813 0.98438,0.42187 1.53125,1.23437 0.5625,0.79688 0.5625,2 0,1.17188 -0.6875,2.21875 -0.67187,1.03125 -1.96875,1.59375 -1.28125,0.5625 -2.90625,0.5625 -2.70312,0 -4.125,-1.10937 -1.40625,-1.125 -1.79687,-3.32813 z" />
  <path
     style="fill:#000000;fill-rule:nonzero"
     inkscape:connector-curvature="0"
     id="path3837"
     d="m 147.45591,461.16035 v -19.07812 h 3.67187 v 19.07812 z m 10.14033,-9.60937 -3.3125,-0.59375 q 0.5625,-2 1.92188,-2.96875 1.375,-0.96875 4.0625,-0.96875 2.45312,0 3.64062,0.57812 1.20313,0.57813 1.6875,1.48438 0.5,0.89062 0.5,3.26562 l -0.0469,4.26563 q 0,1.82812 0.17187,2.70312 0.17188,0.85938 0.65625,1.84375 h -3.60937 q -0.14063,-0.35937 -0.35938,-1.07812 -0.0937,-0.32813 -0.125,-0.4375 -0.9375,0.92187 -2.01562,1.375 -1.0625,0.45312 -2.26563,0.45312 -2.14062,0 -3.375,-1.15625 -1.21875,-1.15625 -1.21875,-2.9375 0,-1.17187 0.54688,-2.07812 0.5625,-0.92188 1.57812,-1.40625 1.01563,-0.48438 2.90625,-0.85938 2.5625,-0.48437 3.5625,-0.89062 v -0.375 q 0,-1.04688 -0.53125,-1.5 -0.51562,-0.45313 -1.96875,-0.45313 -0.96875,0 -1.51562,0.39063 -0.54688,0.39062 -0.89063,1.34375 z m 4.90625,2.96875 q -0.70312,0.23437 -2.23437,0.5625 -1.51563,0.32812 -1.98438,0.64062 -0.71875,0.5 -0.71875,1.28125 0,0.76563 0.5625,1.32813 0.57813,0.5625 1.46875,0.5625 0.98438,0 1.89063,-0.65625 0.65625,-0.48438 0.85937,-1.20313 0.15625,-0.46875 0.15625,-1.78125 z m 7.02807,6.64062 v -19.07812 h 3.67187 v 6.875 q 1.6875,-1.9375 4,-1.9375 2.53125,0 4.17188,1.82812 1.65625,1.82813 1.65625,5.26563 0,3.53125 -1.6875,5.45312 -1.67188,1.90625 -4.09375,1.90625 -1.17188,0 -2.32813,-0.59375 -1.15625,-0.59375 -1.98437,-1.75 v 2.03125 z m 3.64062,-7.20312 q 0,2.14062 0.67188,3.17187 0.95312,1.45313 2.53125,1.45313 1.20312,0 2.04687,-1.03125 0.85938,-1.03125 0.85938,-3.26563 0,-2.35937 -0.85938,-3.40625 -0.85937,-1.0625 -2.1875,-1.0625 -1.32812,0 -2.20312,1.03125 -0.85938,1.01563 -0.85938,3.10938 z m 20.81395,2.79687 3.64063,0.625 q -0.70313,2 -2.21875,3.04688 -1.51563,1.04687 -3.79688,1.04687 -3.60937,0 -5.32812,-2.35937 -1.375,-1.89063 -1.375,-4.76563 0,-3.4375 1.79687,-5.375 1.79688,-1.95312 4.54688,-1.95312 3.07812,0 4.85937,2.04687 1.78125,2.03125 1.70313,6.23438 h -9.15625 q 0.0469,1.625 0.89062,2.53125 0.84375,0.90625 2.10938,0.90625 0.85937,0 1.4375,-0.46875 0.59375,-0.46875 0.89062,-1.51563 z m 0.20313,-3.6875 q -0.0312,-1.59375 -0.8125,-2.42187 -0.78125,-0.82813 -1.90625,-0.82813 -1.20313,0 -1.98438,0.875 -0.78125,0.875 -0.76562,2.375 z m 6.60618,8.09375 v -19.07812 h 3.67188 v 19.07812 z" />
  <path
     style="fill:#000000;fill-rule:nonzero"
     inkscape:connector-curvature="0"
     id="path3839"
     d="m 215.45012,466.45723 v -19.125 h 2.14062 v 1.79687 q 0.75,-1.04687 1.70313,-1.57812 0.95312,-0.53125 2.3125,-0.53125 1.76562,0 3.10937,0.92187 1.35938,0.90625 2.04688,2.5625 0.6875,1.65625 0.6875,3.64063 0,2.125 -0.76563,3.82812 -0.75,1.6875 -2.20312,2.59375 -1.45313,0.90625 -3.04688,0.90625 -1.17187,0 -2.10937,-0.48437 -0.92188,-0.5 -1.53125,-1.26563 v 6.73438 z m 2.125,-12.125 q 0,2.65625 1.07812,3.9375 1.09375,1.28125 2.625,1.28125 1.5625,0 2.67188,-1.3125 1.10937,-1.32813 1.10937,-4.10938 0,-2.64062 -1.09375,-3.95312 -1.07812,-1.3125 -2.59375,-1.3125 -1.48437,0 -2.64062,1.40625 -1.15625,1.39062 -1.15625,4.0625 z m 11.84056,-0.0781 q 0,-3.84375 2.125,-5.6875 1.78125,-1.54687 4.34375,-1.54687 2.85938,0 4.65625,1.875 1.8125,1.85937 1.8125,5.15625 0,2.67187 -0.79687,4.20312 -0.79688,1.53125 -2.32813,2.375 -1.53125,0.84375 -3.34375,0.84375 -2.89062,0 -4.6875,-1.85937 -1.78125,-1.85938 -1.78125,-5.35938 z m 2.40625,0 q 0,2.65625 1.15625,3.98438 1.15625,1.3125 2.90625,1.3125 1.75,0 2.90625,-1.32813 1.15625,-1.32812 1.15625,-4.04687 0,-2.5625 -1.17187,-3.89063 -1.15625,-1.32812 -2.89063,-1.32812 -1.75,0 -2.90625,1.32812 -1.15625,1.3125 -1.15625,3.96875 z m 12.41869,0 q 0,-3.84375 2.125,-5.6875 1.78125,-1.54687 4.34375,-1.54687 2.85937,0 4.65625,1.875 1.8125,1.85937 1.8125,5.15625 0,2.67187 -0.79688,4.20312 -0.79687,1.53125 -2.32812,2.375 -1.53125,0.84375 -3.34375,0.84375 -2.89063,0 -4.6875,-1.85937 -1.78125,-1.85938 -1.78125,-5.35938 z m 2.40625,0 q 0,2.65625 1.15625,3.98438 1.15625,1.3125 2.90625,1.3125 1.75,0 2.90625,-1.32813 1.15625,-1.32812 1.15625,-4.04687 0,-2.5625 -1.17188,-3.89063 -1.15625,-1.32812 -2.89062,-1.32812 -1.75,0 -2.90625,1.32812 -1.15625,1.3125 -1.15625,3.96875 z m 13.23117,6.90625 v -19.07812 h 2.34375 v 19.07812 z m 13.37503,5.29688 v -19.125 h 2.14062 v 1.79687 q 0.75,-1.04687 1.70313,-1.57812 0.95312,-0.53125 2.3125,-0.53125 1.76562,0 3.10937,0.92187 1.35938,0.90625 2.04688,2.5625 0.6875,1.65625 0.6875,3.64063 0,2.125 -0.76563,3.82812 -0.75,1.6875 -2.20312,2.59375 -1.45313,0.90625 -3.04688,0.90625 -1.17187,0 -2.10937,-0.48437 -0.92188,-0.5 -1.53125,-1.26563 v 6.73438 z m 2.125,-12.125 q 0,2.65625 1.07812,3.9375 1.09375,1.28125 2.625,1.28125 1.5625,0 2.67188,-1.3125 1.10937,-1.32813 1.10937,-4.10938 0,-2.64062 -1.09375,-3.95312 -1.07812,-1.3125 -2.59375,-1.3125 -1.48437,0 -2.64062,1.40625 -1.15625,1.39062 -1.15625,4.0625 z m 11.84054,-0.0781 q 0,-3.84375 2.125,-5.6875 1.78125,-1.54687 4.34375,-1.54687 2.85938,0 4.65625,1.875 1.8125,1.85937 1.8125,5.15625 0,2.67187 -0.79687,4.20312 -0.79688,1.53125 -2.32813,2.375 -1.53125,0.84375 -3.34375,0.84375 -2.89062,0 -4.6875,-1.85937 -1.78125,-1.85938 -1.78125,-5.35938 z m 2.40625,0 q 0,2.65625 1.15625,3.98438 1.15625,1.3125 2.90625,1.3125 1.75,0 2.90625,-1.32813 1.15625,-1.32812 1.15625,-4.04687 0,-2.5625 -1.17187,-3.89063 -1.15625,-1.32812 -2.89063,-1.32812 -1.75,0 -2.90625,1.32812 -1.15625,1.3125 -1.15625,3.96875 z m 13.29368,-9.48437 v -2.6875 h 2.34375 v 2.6875 z m 0,16.39062 v -13.82812 h 2.34375 v 13.82812 z m 5.90655,0 v -13.82812 h 2.10938 v 1.96875 q 1.53125,-2.28125 4.40625,-2.28125 1.25,0 2.29687,0.45312 1.04688,0.45313 1.5625,1.1875 0.53125,0.71875 0.73438,1.71875 0.125,0.65625 0.125,2.28125 v 8.5 h -2.34375 v -8.40631 q 0,-1.4375 -0.28125,-2.14062 -0.26563,-0.71875 -0.96875,-1.14063 -0.6875,-0.42187 -1.625,-0.42187 -1.48438,0 -2.57813,0.95312 -1.09375,0.95313 -1.09375,3.60938 v 7.54687 z m 19.94995,-2.09375 0.32813,2.0625 q -0.98438,0.21875 -1.76563,0.21875 -1.26562,0 -1.96875,-0.40625 -0.70312,-0.40625 -1,-1.0625 -0.28125,-0.65625 -0.28125,-2.76562 v -7.95313 h -1.71875 v -1.82812 h 1.71875 v -3.42188 l 2.32813,-1.40625 v 4.82813 h 2.35937 v 1.82812 h -2.35937 v 8.07813 q 0,1 0.125,1.29687 0.125,0.28125 0.40625,0.45313 0.28125,0.17187 0.79687,0.17187 0.39063,0 1.03125,-0.0937 z m 1.34345,-2.03125 2.32812,-0.35937 q 0.1875,1.39062 1.07813,2.14062 0.89062,0.73438 2.5,0.73438 1.60937,0 2.39062,-0.65625 0.78125,-0.65625 0.78125,-1.54688 0,-0.79687 -0.6875,-1.25 -0.48437,-0.3125 -2.39062,-0.79687 -2.57813,-0.65625 -3.57813,-1.125 -1,-0.46875 -1.51562,-1.3125 -0.51563,-0.84375 -0.51563,-1.85938 0,-0.92187 0.42188,-1.70312 0.4375,-0.79688 1.15625,-1.3125 0.54687,-0.40625 1.48437,-0.6875 0.95313,-0.28125 2.03125,-0.28125 1.625,0 2.85938,0.46875 1.23437,0.46875 1.8125,1.28125 0.59375,0.79687 0.8125,2.14062 l -2.29688,0.3125 q -0.15625,-1.07812 -0.90625,-1.67187 -0.75,-0.59375 -2.10937,-0.59375 -1.60938,0 -2.3125,0.53125 -0.6875,0.53125 -0.6875,1.25 0,0.45312 0.29687,0.8125 0.28125,0.375 0.89063,0.625 0.35937,0.14062 2.07812,0.60937 2.48438,0.65625 3.46875,1.07813 0.98438,0.42187 1.53125,1.23437 0.5625,0.79688 0.5625,2 0,1.17188 -0.6875,2.21875 -0.67187,1.03125 -1.96875,1.59375 -1.28125,0.5625 -2.90625,0.5625 -2.70312,0 -4.125,-1.10937 -1.40625,-1.125 -1.79687,-3.32813 z" />
  <path
     style="fill:#000000;fill-rule:nonzero"
     inkscape:connector-curvature="0"
     id="path3841"
     d="m 62.454909,493.16035 -4.23437,-13.82812 h 2.42187 l 2.20312,7.98437 0.8125,2.96875 q 0.0625,-0.21875 0.71875,-2.85937 l 2.20313,-8.09375 h 2.40625 l 2.0625,8.01562 0.6875,2.65625 0.79687,-2.67187 2.375,-8 h 2.28125 l -4.32812,13.82812 h -2.4375 l -2.1875,-8.28125 -0.54688,-2.35937 -2.79687,10.64062 z m 16.70341,-16.39062 v -2.6875 h 2.34375 v 2.6875 z m 0,16.39062 v -13.82812 h 2.34375 v 13.82812 z m 11.03154,-2.09375 0.32813,2.0625 q -0.98438,0.21875 -1.76563,0.21875 -1.26562,0 -1.96875,-0.40625 -0.70312,-0.40625 -1,-1.0625 -0.28125,-0.65625 -0.28125,-2.76562 v -7.95313 h -1.71875 v -1.82812 h 1.71875 v -3.42188 l 2.32813,-1.40625 v 4.82813 h 2.35937 v 1.82812 h -2.35937 v 8.07813 q 0,1 0.125,1.29687 0.125,0.28125 0.40625,0.45313 0.28125,0.17187 0.79687,0.17187 0.39063,0 1.03125,-0.0937 z m 2.28096,2.09375 v -19.07812 h 2.34375 v 6.84375 q 1.64062,-1.90625 4.14062,-1.90625 1.546881,0 2.671881,0.60937 1.14062,0.60938 1.625,1.67188 0.48437,1.0625 0.48437,3.09375 v 8.76562 h -2.34375 v -8.76562 q 0,-1.75 -0.76562,-2.54688 -0.750001,-0.8125 -2.156251,-0.8125 -1.03125,0 -1.95313,0.54688 -0.92187,0.54687 -1.31249,1.46875 -0.39063,0.92187 -0.39063,2.54687 v 7.5625 z m 22.230901,0 v -19.07812 h 2.34375 v 6.84375 q 1.64063,-1.90625 4.14063,-1.90625 1.54687,0 2.67187,0.60937 1.14064,0.60938 1.62501,1.67188 0.48438,1.0625 0.48438,3.09375 v 8.76562 h -2.34376 v -8.76562 q 0,-1.75 -0.76563,-2.54688 -0.75,-0.8125 -2.15625,-0.8125 -1.03125,0 -1.95312,0.54688 -0.92188,0.54687 -1.3125,1.46875 -0.39063,0.92187 -0.39063,2.54687 v 7.5625 z m 14.84057,-16.39062 v -2.6875 h 2.34375 v 2.6875 z m 0,16.39062 v -13.82812 h 2.34375 v 13.82812 z m 5.48467,1.14063 2.28125,0.34375 q 0.14062,1.04687 0.79687,1.53125 0.85938,0.65625 2.375,0.65625 1.625,0 2.5,-0.65625 0.89063,-0.64063 1.20313,-1.8125 0.1875,-0.71875 0.17187,-3.01563 -1.53125,1.8125 -3.82812,1.8125 -2.84375,0 -4.40625,-2.04687 -1.5625,-2.0625 -1.5625,-4.9375 0,-1.98438 0.71875,-3.65625 0.71875,-1.67188 2.07812,-2.57813 1.35938,-0.92187 3.1875,-0.92187 2.45313,0 4.03125,1.98437 v -1.67187 h 2.17188 v 11.95312 q 0,3.23438 -0.65625,4.57813 -0.65625,1.34375 -2.09375,2.125 -1.42188,0.78125 -3.5,0.78125 -2.46875,0 -4,-1.10938 -1.51563,-1.10937 -1.46875,-3.35937 z m 1.9375,-8.29688 q 0,2.71875 1.07812,3.96875 1.07813,1.25 2.70313,1.25 1.625,0 2.71875,-1.23437 1.09375,-1.25 1.09375,-3.90625 0,-2.54688 -1.125,-3.82813 -1.125,-1.29687 -2.71875,-1.29687 -1.5625,0 -2.65625,1.28125 -1.09375,1.26562 -1.09375,3.76562 z m 13.30931,7.15625 v -19.07812 h 2.34375 v 6.84375 q 1.64062,-1.90625 4.14062,-1.90625 1.54688,0 2.67188,0.60937 1.14062,0.60938 1.625,1.67188 0.48437,1.0625 0.48437,3.09375 v 8.76562 h -2.34375 v -8.76562 q 0,-1.75 -0.76562,-2.54688 -0.75,-0.8125 -2.15625,-0.8125 -1.03125,0 -1.95313,0.54688 -0.92187,0.54687 -1.3125,1.46875 -0.39062,0.92187 -0.39062,2.54687 v 7.5625 z m 24.29369,-4.45312 2.42187,0.29687 q -0.57812,2.125 -2.125,3.29688 -1.54687,1.17187 -3.95312,1.17187 -3.03125,0 -4.8125,-1.85937 -1.78125,-1.875 -1.78125,-5.25 0,-3.48438 1.79687,-5.40625 1.79688,-1.9375 4.67188,-1.9375 2.76562,0 4.51562,1.89062 1.76563,1.89063 1.76563,5.3125 0,0.20313 -0.0156,0.625 h -10.31253 q 0.14063,2.28125 1.29688,3.5 1.15625,1.20313 2.89062,1.20313 1.28125,0 2.1875,-0.67188 0.92188,-0.6875 1.45313,-2.17187 z m -7.6875,-3.78125 h 7.71875 q -0.15625,-1.75 -0.89063,-2.625 -1.125,-1.34375 -2.90625,-1.34375 -1.60937,0 -2.71875,1.07812 -1.09375,1.07813 -1.20312,2.89063 z m 12.10618,4.10937 2.32813,-0.35937 q 0.1875,1.39062 1.07812,2.14062 0.89063,0.73438 2.5,0.73438 1.60938,0 2.39063,-0.65625 0.78125,-0.65625 0.78125,-1.54688 0,-0.79687 -0.6875,-1.25 -0.48438,-0.3125 -2.39063,-0.79687 -2.57812,-0.65625 -3.57812,-1.125 -1,-0.46875 -1.51563,-1.3125 -0.51562,-0.84375 -0.51562,-1.85938 0,-0.92187 0.42187,-1.70312 0.4375,-0.79688 1.15625,-1.3125 0.54688,-0.40625 1.48438,-0.6875 0.95312,-0.28125 2.03125,-0.28125 1.625,0 2.85937,0.46875 1.23438,0.46875 1.8125,1.28125 0.59375,0.79687 0.8125,2.14062 l -2.29687,0.3125 q -0.15625,-1.07812 -0.90625,-1.67187 -0.75,-0.59375 -2.10938,-0.59375 -1.60937,0 -2.3125,0.53125 -0.6875,0.53125 -0.6875,1.25 0,0.45312 0.29688,0.8125 0.28125,0.375 0.89062,0.625 0.35938,0.14062 2.07813,0.60937 2.48437,0.65625 3.46875,1.07813 0.98437,0.42187 1.53125,1.23437 0.5625,0.79688 0.5625,2 0,1.17188 -0.6875,2.21875 -0.67188,1.03125 -1.96875,1.59375 -1.28125,0.5625 -2.90625,0.5625 -2.70313,0 -4.125,-1.10937 -1.40625,-1.125 -1.79688,-3.32813 z m 19.39063,2.03125 0.32812,2.0625 q -0.98437,0.21875 -1.76562,0.21875 -1.26563,0 -1.96875,-0.40625 -0.70313,-0.40625 -1,-1.0625 -0.28125,-0.65625 -0.28125,-2.76562 v -7.95313 h -1.71875 v -1.82812 h 1.71875 v -3.42188 l 2.32812,-1.40625 v 4.82813 h 2.35938 v 1.82812 h -2.35938 v 8.07813 q 0,1 0.125,1.29687 0.125,0.28125 0.40625,0.45313 0.28125,0.17187 0.79688,0.17187 0.39062,0 1.03125,-0.0937 z m 18.71817,0.39063 q -1.3125,1.10937 -2.51563,1.5625 -1.20312,0.45312 -2.57812,0.45312 -2.28125,0 -3.5,-1.10937 -1.21875,-1.10938 -1.21875,-2.84375 0,-1.01563 0.45312,-1.85938 0.46875,-0.84375 1.21875,-1.34375 0.75,-0.51562 1.6875,-0.76562 0.6875,-0.1875 2.07813,-0.35938 2.82812,-0.32812 4.17187,-0.79687 0.0156,-0.48438 0.0156,-0.625 0,-1.42188 -0.65625,-2.01563 -0.90625,-0.79687 -2.67188,-0.79687 -1.65625,0 -2.45312,0.59375 -0.78125,0.57812 -1.15625,2.04687 l -2.29688,-0.3125 q 0.3125,-1.46875 1.03125,-2.375 0.71875,-0.90625 2.0625,-1.39062 1.35938,-0.5 3.14063,-0.5 1.78125,0 2.875,0.42187 1.10937,0.42188 1.625,1.04688 0.53125,0.625 0.73437,1.59375 0.125,0.59375 0.125,2.15625 v 3.125 q 0,3.26562 0.14063,4.14062 0.15625,0.85938 0.59375,1.65625 h -2.4375 q -0.375,-0.73437 -0.46875,-1.70312 z m -0.20313,-5.23438 q -1.26562,0.51563 -3.82812,0.89063 -1.4375,0.20312 -2.04688,0.46875 -0.59375,0.25 -0.92187,0.75 -0.3125,0.5 -0.3125,1.125 0,0.9375 0.70312,1.5625 0.70313,0.625 2.07813,0.625 1.34375,0 2.39062,-0.59375 1.0625,-0.59375 1.5625,-1.625 0.375,-0.79688 0.375,-2.34375 z m 15.02806,1.875 2.29688,0.29688 q -0.375,2.39062 -1.9375,3.73437 -1.54688,1.34375 -3.8125,1.34375 -2.84375,0 -4.5625,-1.84375 -1.71875,-1.85937 -1.71875,-5.32812 0,-2.23438 0.73437,-3.90625 0.75,-1.6875 2.26563,-2.53125 1.51562,-0.84375 3.29687,-0.84375 2.25,0 3.67188,1.14062 1.4375,1.14063 1.84375,3.23438 l -2.28125,0.35937 q -0.32813,-1.39062 -1.15625,-2.09375 -0.8125,-0.70312 -1.98438,-0.70312 -1.78125,0 -2.89062,1.26562 -1.09375,1.26563 -1.09375,4.01563 0,2.78125 1.0625,4.04687 1.0625,1.26563 2.78125,1.26563 1.39062,0 2.3125,-0.84375 0.92187,-0.85938 1.17187,-2.60938 z m 13.10938,10.35938 v -6.76563 q -0.54688,0.76563 -1.53125,1.28125 -0.96875,0.5 -2.07813,0.5 -2.46875,0 -4.25,-1.96875 -1.76562,-1.96875 -1.76562,-5.39062 0,-2.07813 0.71875,-3.73438 0.71875,-1.65625 2.09375,-2.5 1.375,-0.85937 3.01562,-0.85937 2.5625,0 4.03125,2.17187 v -1.85937 h 2.10938 v 19.125 z m -7.21875,-12.25 q 0,2.67187 1.10937,4.01562 1.125,1.32813 2.6875,1.32813 1.5,0 2.57813,-1.26563 1.07812,-1.28125 1.07812,-3.85937 0,-2.76563 -1.14062,-4.15625 -1.125,-1.39063 -2.67188,-1.39063 -1.51562,0 -2.57812,1.29688 -1.0625,1.28125 -1.0625,4.03125 z m 22.29367,6.95312 v -2.03125 q -1.60938,2.34375 -4.375,2.34375 -1.23438,0 -2.29688,-0.46875 -1.0625,-0.46875 -1.57811,-1.17187 -0.5,-0.71875 -0.71875,-1.75 -0.14062,-0.6875 -0.14062,-2.1875 v -8.5625 h 2.34373 v 7.67187 q 0,1.82813 0.14063,2.46875 0.21875,0.92188 0.9375,1.45313 0.71875,0.53125 1.76562,0.53125 1.0625,0 1.98438,-0.53125 0.92187,-0.54688 1.29687,-1.46875 0.39063,-0.9375 0.39063,-2.71875 v -7.40625 h 2.34375 v 13.82812 z m 5.77807,-16.39062 v -2.6875 h 2.34375 v 2.6875 z m 0,16.39062 v -13.82812 h 2.34375 v 13.82812 z m 4.96903,-4.125 2.32812,-0.35937 q 0.1875,1.39062 1.07813,2.14062 0.89062,0.73438 2.5,0.73438 1.60937,0 2.39062,-0.65625 0.78125,-0.65625 0.78125,-1.54688 0,-0.79687 -0.6875,-1.25 -0.48437,-0.3125 -2.39062,-0.79687 -2.57813,-0.65625 -3.57813,-1.125 -1,-0.46875 -1.51562,-1.3125 -0.51563,-0.84375 -0.51563,-1.85938 0,-0.92187 0.42188,-1.70312 0.4375,-0.79688 1.15625,-1.3125 0.54687,-0.40625 1.48437,-0.6875 0.95313,-0.28125 2.03125,-0.28125 1.625,0 2.85938,0.46875 1.23437,0.46875 1.8125,1.28125 0.59375,0.79687 0.8125,2.14062 l -2.29688,0.3125 q -0.15625,-1.07812 -0.90625,-1.67187 -0.75,-0.59375 -2.10937,-0.59375 -1.60938,0 -2.3125,0.53125 -0.6875,0.53125 -0.6875,1.25 0,0.45312 0.29687,0.8125 0.28125,0.375 0.89063,0.625 0.35937,0.14062 2.07812,0.60937 2.48438,0.65625 3.46875,1.07813 0.98438,0.42187 1.53125,1.23437 0.5625,0.79688 0.5625,2 0,1.17188 -0.6875,2.21875 -0.67187,1.03125 -1.96875,1.59375 -1.28125,0.5625 -2.90625,0.5625 -2.70312,0 -4.125,-1.10937 -1.40625,-1.125 -1.79687,-3.32813 z m 14.28125,-12.26562 v -2.6875 h 2.34375 v 2.6875 z m 0,16.39062 v -13.82812 h 2.34375 v 13.82812 z m 11.03155,-2.09375 0.32813,2.0625 q -0.98438,0.21875 -1.76563,0.21875 -1.26562,0 -1.96875,-0.40625 -0.70312,-0.40625 -1,-1.0625 -0.28125,-0.65625 -0.28125,-2.76562 v -7.95313 h -1.71875 v -1.82812 h 1.71875 v -3.42188 l 2.32813,-1.40625 v 4.82813 h 2.35937 v 1.82812 h -2.35937 v 8.07813 q 0,1 0.125,1.29687 0.125,0.28125 0.40625,0.45313 0.28125,0.17187 0.79687,0.17187 0.39063,0 1.03125,-0.0937 z m 2.29657,-14.29687 v -2.6875 h 2.34375 v 2.6875 z m 0,16.39062 v -13.82812 h 2.34375 v 13.82812 z m 5.04718,-6.90625 q 0,-3.84375 2.125,-5.6875 1.78125,-1.54687 4.34375,-1.54687 2.85938,0 4.65625,1.875 1.8125,1.85937 1.8125,5.15625 0,2.67187 -0.79687,4.20312 -0.79688,1.53125 -2.32813,2.375 -1.53125,0.84375 -3.34375,0.84375 -2.89062,0 -4.6875,-1.85937 -1.78125,-1.85938 -1.78125,-5.35938 z m 2.40625,0 q 0,2.65625 1.15625,3.98438 1.15625,1.3125 2.90625,1.3125 1.75,0 2.90625,-1.32813 1.15625,-1.32812 1.15625,-4.04687 0,-2.5625 -1.17187,-3.89063 -1.15625,-1.32812 -2.89063,-1.32812 -1.75,0 -2.90625,1.32812 -1.15625,1.3125 -1.15625,3.96875 z m 13.27808,6.90625 v -13.82812 h 2.10937 v 1.96875 q 1.53125,-2.28125 4.40625,-2.28125 1.25,0 2.29688,0.45312 1.04687,0.45313 1.5625,1.1875 0.53125,0.71875 0.73437,1.71875 0.125,0.65625 0.125,2.28125 v 8.5 h -2.34375 v -8.40625 q 0,-1.4375 -0.28125,-2.14062 -0.26562,-0.71875 -0.96875,-1.14063 -0.6875,-0.42187 -1.625,-0.42187 -1.48437,0 -2.57812,0.95312 -1.09375,0.95313 -1.09375,3.60938 v 7.54687 z" />
  <path
     style="fill:#000000;fill-rule:nonzero"
     inkscape:connector-curvature="0"
     id="path3843"
     d="m 163.42581,521.03535 2.32812,-0.35937 q 0.1875,1.39062 1.07813,2.14062 0.89062,0.73438 2.5,0.73438 1.60937,0 2.39062,-0.65625 0.78125,-0.65625 0.78125,-1.54688 0,-0.79687 -0.6875,-1.25 -0.48437,-0.3125 -2.39062,-0.79687 -2.57813,-0.65625 -3.57813,-1.125 -1,-0.46875 -1.51562,-1.3125 -0.51563,-0.84375 -0.51563,-1.85938 0,-0.92187 0.42188,-1.70312 0.4375,-0.79688 1.15625,-1.3125 0.54687,-0.40625 1.48437,-0.6875 0.95313,-0.28125 2.03125,-0.28125 1.625,0 2.85938,0.46875 1.23437,0.46875 1.8125,1.28125 0.59375,0.79687 0.8125,2.14062 l -2.29688,0.3125 q -0.15625,-1.07812 -0.90625,-1.67187 -0.75,-0.59375 -2.10937,-0.59375 -1.60938,0 -2.3125,0.53125 -0.6875,0.53125 -0.6875,1.25 0,0.45312 0.29687,0.8125 0.28125,0.375 0.89063,0.625 0.35937,0.14062 2.07812,0.60937 2.48438,0.65625 3.46875,1.07813 0.98438,0.42187 1.53125,1.23437 0.5625,0.79688 0.5625,2 0,1.17188 -0.6875,2.21875 -0.67187,1.03125 -1.96875,1.59375 -1.28125,0.5625 -2.90625,0.5625 -2.70312,0 -4.125,-1.10937 -1.40625,-1.125 -1.79687,-3.32813 z m 23.29687,-0.9375 2.29688,0.29688 q -0.375,2.39062 -1.9375,3.73437 -1.54688,1.34375 -3.8125,1.34375 -2.84375,0 -4.5625,-1.84375 -1.71875,-1.85937 -1.71875,-5.32812 0,-2.23438 0.73437,-3.90625 0.75,-1.6875 2.26563,-2.53125 1.51562,-0.84375 3.29687,-0.84375 2.25,0 3.67188,1.14062 1.4375,1.14063 1.84375,3.23438 l -2.28125,0.35937 q -0.32813,-1.39062 -1.15625,-2.09375 -0.8125,-0.70312 -1.98438,-0.70312 -1.78125,0 -2.89062,1.26562 -1.09375,1.26563 -1.09375,4.01563 0,2.78125 1.0625,4.04687 1.0625,1.26563 2.78125,1.26563 1.39062,0 2.3125,-0.84375 0.92187,-0.85938 1.17187,-2.60938 z m 3.4375,-1.84375 q 0,-3.84375 2.125,-5.6875 1.78125,-1.54687 4.34375,-1.54687 2.85938,0 4.65625,1.875 1.8125,1.85937 1.8125,5.15625 0,2.67187 -0.79687,4.20312 -0.79688,1.53125 -2.32813,2.375 -1.53125,0.84375 -3.34375,0.84375 -2.89062,0 -4.6875,-1.85937 -1.78125,-1.85938 -1.78125,-5.35938 z m 2.40625,0 q 0,2.65625 1.15625,3.98438 1.15625,1.3125 2.90625,1.3125 1.75,0 2.90625,-1.32813 1.15625,-1.32812 1.15625,-4.04687 0,-2.5625 -1.17187,-3.89063 -1.15625,-1.32812 -2.89063,-1.32812 -1.75,0 -2.90625,1.32812 -1.15625,1.3125 -1.15625,3.96875 z m 13.26244,6.90625 v -13.82812 h 2.10938 v 2.09375 q 0.79687,-1.46875 1.48437,-1.9375 0.6875,-0.46875 1.5,-0.46875 1.1875,0 2.40625,0.76562 l -0.79687,2.17188 q -0.85938,-0.51563 -1.71875,-0.51563 -0.76563,0 -1.39063,0.46875 -0.60937,0.45313 -0.85937,1.28125 -0.39063,1.25 -0.39063,2.73438 v 7.23437 z m 18.36112,-4.45312 2.42187,0.29687 q -0.57812,2.125 -2.125,3.29688 -1.54687,1.17187 -3.95312,1.17187 -3.03125,0 -4.8125,-1.85937 -1.78125,-1.875 -1.78125,-5.25 0,-3.48438 1.79687,-5.40625 1.79688,-1.9375 4.67188,-1.9375 2.76562,0 4.51562,1.89062 1.76563,1.89063 1.76563,5.3125 0,0.20313 -0.0156,0.625 h -10.3125 q 0.14063,2.28125 1.29688,3.5 1.15625,1.20313 2.89062,1.20313 1.28125,0 2.1875,-0.67188 0.92188,-0.6875 1.45313,-2.17187 z m -7.6875,-3.78125 h 7.71875 q -0.15625,-1.75 -0.89063,-2.625 -1.125,-1.34375 -2.90625,-1.34375 -1.60937,0 -2.71875,1.07812 -1.09375,1.07813 -1.20312,2.89063 z" />
  <path
     style="fill:#000000;fill-opacity:0;fill-rule:evenodd"
     inkscape:connector-curvature="0"
     id="path3845"
     d="m 10.448819,611.4295 v 0 c 0,-9.7442 7.89921,-17.64343 17.64339,-17.64343 H 362.31726 c 4.67932,0 9.16699,1.85888 12.47577,5.16766 3.30878,3.30878 5.16763,7.79645 5.16763,12.47577 v 70.57147 c 0,9.74414 -7.89923,17.64337 -17.6434,17.64337 H 28.092209 c -9.74418,0 -17.64339,-7.89923 -17.64339,-17.64337 z" />
  <path
     style="fill-rule:evenodd;stroke:#000000;stroke-width:2;stroke-linecap:butt;stroke-linejoin:round"
     inkscape:connector-curvature="0"
     id="path3847"
     d="m 10.448819,611.4295 v 0 c 0,-9.7442 7.89921,-17.64343 17.64339,-17.64343 H 362.31726 c 4.67932,0 9.16699,1.85888 12.47577,5.16766 3.30878,3.30878 5.16763,7.79645 5.16763,12.47577 v 70.57147 c 0,9.74414 -7.89923,17.64337 -17.6434,17.64337 H 28.092209 c -9.74418,0 -17.64339,-7.89923 -17.64339,-17.64337 z" />
  <path
     style="fill:#000000;fill-rule:nonzero"
     inkscape:connector-curvature="0"
     id="path3849"
     d="m 38.118969,640.3152 7.3125,-19.07812 h 2.73438 l 7.79687,19.07812 h -2.875 l -2.21875,-5.78125 h -7.98437 l -2.09375,5.78125 z m 5.5,-7.82812 h 6.46875 l -2,-5.29688 q -0.90625,-2.40625 -1.34375,-3.95312 -0.375,1.84375 -1.03125,3.64062 z m 23.02951,7.82812 v -1.75 q -1.3125,2.0625 -3.85937,2.0625 -1.65625,0 -3.04688,-0.90625 -1.375,-0.92187 -2.14062,-2.54687 -0.76563,-1.64063 -0.76563,-3.75 0,-2.07813 0.6875,-3.76563 0.70313,-1.6875 2.07813,-2.57812 1.375,-0.90625 3.07812,-0.90625 1.25,0 2.21875,0.53125 0.98438,0.53125 1.59375,1.375 v -6.84375 h 2.34375 v 19.07812 z m -7.40625,-6.89062 q 0,2.64062 1.125,3.96875 1.125,1.3125 2.64063,1.3125 1.53125,0 2.60937,-1.25 1.07813,-1.26563 1.07813,-3.84375 0,-2.84375 -1.09375,-4.17188 -1.09375,-1.32812 -2.70313,-1.32812 -1.54687,0 -2.60937,1.28125 -1.04688,1.28125 -1.04688,4.03125 z m 22.23119,6.89062 v -1.75 q -1.3125,2.0625 -3.85938,2.0625 -1.65625,0 -3.04687,-0.90625 -1.375,-0.92187 -2.14063,-2.54687 -0.76562,-1.64063 -0.76562,-3.75 0,-2.07813 0.6875,-3.76563 0.70312,-1.6875 2.07812,-2.57812 1.375,-0.90625 3.07813,-0.90625 1.25,0 2.21875,0.53125 0.98437,0.53125 1.59375,1.375 v -6.84375 h 2.34375 v 19.07812 z m -7.40625,-6.89062 q 0,2.64062 1.125,3.96875 1.125,1.3125 2.64062,1.3125 1.53125,0 2.60938,-1.25 1.07812,-1.26563 1.07812,-3.84375 0,-2.84375 -1.09375,-4.17188 -1.09375,-1.32812 -2.70312,-1.32812 -1.54688,0 -2.60938,1.28125 -1.04687,1.28125 -1.04687,4.03125 z" />
  <path
     style="fill:#000000;fill-rule:nonzero"
     inkscape:connector-curvature="0"
     id="path3851"
     d="m 107.46993,640.3152 h -3.65625 v -7.04687 q 0,-2.25 -0.23437,-2.90625 -0.23438,-0.65625 -0.76563,-1.01563 -0.51562,-0.375 -1.26562,-0.375 -0.95313,0 -1.703131,0.53125 -0.75,0.51563 -1.03125,1.375 -0.28125,0.85938 -0.28125,3.17188 v 6.26562 h -3.65624 v -13.82812 h 3.39062 v 2.03125 q 1.812501,-2.34375 4.562501,-2.34375 1.20312,0 2.20312,0.4375 1.01563,0.4375 1.51563,1.125 0.51562,0.67187 0.71875,1.53125 0.20312,0.85937 0.20312,2.45312 z m 11.72021,-4.40625 3.64063,0.625 q -0.70313,2 -2.21875,3.04688 -1.51563,1.04687 -3.79688,1.04687 -3.60937,0 -5.32812,-2.35937 -1.375,-1.89063 -1.375,-4.76563 0,-3.4375 1.79687,-5.375 1.79688,-1.95312 4.54688,-1.95312 3.07812,0 4.85937,2.04687 1.78125,2.03125 1.70313,6.23438 h -9.15625 q 0.0469,1.625 0.89062,2.53125 0.84375,0.90625 2.10938,0.90625 0.85937,0 1.4375,-0.46875 0.59375,-0.46875 0.89062,-1.51563 z m 0.20313,-3.6875 q -0.0312,-1.59375 -0.8125,-2.42187 -0.78125,-0.82813 -1.90625,-0.82813 -1.20313,0 -1.98438,0.875 -0.78125,0.875 -0.76562,2.375 z m 9.1843,8.09375 -4.375,-13.82812 h 3.5625 l 2.59375,9.0625 2.375,-9.0625 h 3.53125 l 2.29688,9.0625 2.64062,-9.0625 h 3.60938 l -4.4375,13.82812 h -3.51563 l -2.375,-8.89062 -2.34375,8.89062 z m 18.15596,0 v -19.07812 h 3.67188 v 19.07812 z m 5.68721,-13.82812 h 3.89063 l 3.29687,9.8125 3.23438,-9.8125 h 3.78125 l -4.875,13.3125 -0.875,2.40625 q -0.48438,1.20312 -0.92188,1.84375 -0.4375,0.64062 -1,1.03125 -0.5625,0.40625 -1.39062,0.625 -0.82813,0.21875 -1.85938,0.21875 -1.0625,0 -2.07812,-0.21875 l -0.32813,-2.85938 q 0.85938,0.15625 1.54688,0.15625 1.28125,0 1.89062,-0.75 0.60938,-0.73437 0.9375,-1.90625 z m 23.94965,13.82812 v -19.07812 h 3.67187 v 19.07812 z m 10.14033,-9.60937 -3.3125,-0.59375 q 0.5625,-2 1.92188,-2.96875 1.375,-0.96875 4.0625,-0.96875 2.45312,0 3.64062,0.57812 1.20313,0.57813 1.6875,1.48438 0.5,0.89062 0.5,3.26562 l -0.0469,4.26563 q 0,1.82812 0.17187,2.70312 0.17188,0.85938 0.65625,1.84375 h -3.60937 q -0.14063,-0.35937 -0.35938,-1.07812 -0.0937,-0.32813 -0.125,-0.4375 -0.9375,0.92187 -2.01562,1.375 -1.0625,0.45312 -2.26563,0.45312 -2.14062,0 -3.375,-1.15625 -1.21875,-1.15625 -1.21875,-2.9375 0,-1.17187 0.54688,-2.07812 0.5625,-0.92188 1.57812,-1.40625 1.01563,-0.48438 2.90625,-0.85938 2.5625,-0.48437 3.5625,-0.89062 v -0.375 q 0,-1.04688 -0.53125,-1.5 -0.51562,-0.45313 -1.96875,-0.45313 -0.96875,0 -1.51562,0.39063 -0.54688,0.39062 -0.89063,1.34375 z m 4.90625,2.96875 q -0.70312,0.23437 -2.23437,0.5625 -1.51563,0.32812 -1.98438,0.64062 -0.71875,0.5 -0.71875,1.28125 0,0.76563 0.5625,1.32813 0.57813,0.5625 1.46875,0.5625 0.98438,0 1.89063,-0.65625 0.65625,-0.48438 0.85937,-1.20313 0.15625,-0.46875 0.15625,-1.78125 z m 7.02806,6.64062 v -19.07812 h 3.67188 v 6.875 q 1.6875,-1.9375 4,-1.9375 2.53125,0 4.17187,1.82812 1.65625,1.82813 1.65625,5.26563 0,3.53125 -1.6875,5.45312 -1.67187,1.90625 -4.09375,1.90625 -1.17187,0 -2.32812,-0.59375 -1.15625,-0.59375 -1.98438,-1.75 v 2.03125 z m 3.64063,-7.20312 q 0,2.14062 0.67187,3.17187 0.95313,1.45313 2.53125,1.45313 1.20313,0 2.04688,-1.03125 0.85937,-1.03125 0.85937,-3.26563 0,-2.35937 -0.85937,-3.40625 -0.85938,-1.0625 -2.1875,-1.0625 -1.32813,0 -2.20313,1.03125 -0.85937,1.01563 -0.85937,3.10938 z m 20.81395,2.79687 3.64062,0.625 q -0.70312,2 -2.21875,3.04688 -1.51562,1.04687 -3.79687,1.04687 -3.60938,0 -5.32813,-2.35937 -1.375,-1.89063 -1.375,-4.76563 0,-3.4375 1.79688,-5.375 1.79687,-1.95312 4.54687,-1.95312 3.07813,0 4.85938,2.04687 1.78125,2.03125 1.70312,6.23438 h -9.15625 q 0.0469,1.625 0.89063,2.53125 0.84375,0.90625 2.10937,0.90625 0.85938,0 1.4375,-0.46875 0.59375,-0.46875 0.89063,-1.51563 z m 0.20312,-3.6875 q -0.0312,-1.59375 -0.8125,-2.42187 -0.78125,-0.82813 -1.90625,-0.82813 -1.20312,0 -1.98437,0.875 -0.78125,0.875 -0.76563,2.375 z m 6.60619,8.09375 v -19.07812 h 3.67188 v 19.07812 z m 7.40596,0 v -19.07812 h 3.67187 v 19.07812 z m 15.4216,-4.40625 3.64063,0.625 q -0.70313,2 -2.21875,3.04688 -1.51563,1.04687 -3.7969,1.04687 -3.60937,0 -5.32812,-2.35937 -1.375,-1.89063 -1.375,-4.76563 0,-3.4375 1.79687,-5.375 1.79688,-1.95312 4.54688,-1.95312 3.07814,0 4.85939,2.04687 1.78125,2.03125 1.70313,6.23438 h -9.15627 q 0.0469,1.625 0.89063,2.53125 0.84375,0.90625 2.10937,0.90625 0.85938,0 1.4375,-0.46875 0.59377,-0.46875 0.89064,-1.51563 z m 0.20313,-3.6875 q -0.0312,-1.59375 -0.81252,-2.42187 -0.78125,-0.82813 -1.90625,-0.82813 -1.20313,0 -1.98438,0.875 -0.78125,0.875 -0.76562,2.375 z m 19.29367,8.09375 h -3.40625 v -2.03125 q -0.84375,1.1875 -2,1.76563 -1.14063,0.57812 -2.3125,0.57812 -2.39063,0 -4.09375,-1.92187 -1.6875,-1.92188 -1.6875,-5.35938 0,-3.51562 1.65625,-5.34375 1.65625,-1.82812 4.17187,-1.82812 2.3125,0 4.01563,1.9375 v -6.875 h 3.65625 z m -9.76563,-7.20312 q 0,2.20312 0.60938,3.1875 0.89062,1.4375 2.46875,1.4375 1.26562,0 2.15625,-1.0625 0.89062,-1.07813 0.89062,-3.21875 0,-2.375 -0.85937,-3.42188 -0.85938,-1.0625 -2.20313,-1.0625 -1.29687,0 -2.1875,1.04688 -0.875,1.03125 -0.875,3.09375 z" />
  <path
     style="fill:#000000;fill-rule:nonzero"
     inkscape:connector-curvature="0"
     id="path3853"
     d="m 282.87819,645.6121 v -19.125 h 2.14062 v 1.79687 q 0.75,-1.04687 1.70313,-1.57812 0.95312,-0.53125 2.3125,-0.53125 1.76562,0 3.10937,0.92187 1.35938,0.90625 2.04688,2.5625 0.6875,1.65625 0.6875,3.64063 0,2.125 -0.76563,3.82812 -0.75,1.6875 -2.20312,2.59375 -1.45313,0.90625 -3.04688,0.90625 -1.17187,0 -2.10937,-0.48437 -0.92188,-0.5 -1.53125,-1.26563 v 6.73438 z m 2.125,-12.125 q 0,2.65625 1.07812,3.9375 1.09375,1.28125 2.625,1.28125 1.5625,0 2.67188,-1.3125 1.10937,-1.32813 1.10937,-4.10938 0,-2.64062 -1.09375,-3.95312 -1.07812,-1.3125 -2.59375,-1.3125 -1.48437,0 -2.64062,1.40625 -1.15625,1.39062 -1.15625,4.0625 z m 11.84058,-0.0781 q 0,-3.84375 2.125,-5.6875 1.78125,-1.54687 4.34375,-1.54687 2.85937,0 4.65625,1.875 1.8125,1.85937 1.8125,5.15625 0,2.67187 -0.79688,4.20312 -0.79687,1.53125 -2.32812,2.375 -1.53125,0.84375 -3.34375,0.84375 -2.89063,0 -4.6875,-1.85937 -1.78125,-1.85938 -1.78125,-5.35938 z m 2.40625,0 q 0,2.65625 1.15625,3.98438 1.15625,1.3125 2.90625,1.3125 1.75,0 2.90625,-1.32813 1.15625,-1.32812 1.15625,-4.04687 0,-2.5625 -1.17188,-3.89063 -1.15625,-1.32812 -2.89062,-1.32812 -1.75,0 -2.90625,1.32812 -1.15625,1.3125 -1.15625,3.96875 z m 13.2937,-9.48437 v -2.6875 h 2.34375 v 2.6875 z m 0,16.39062 V 626.4871 h 2.34375 v 13.82812 z m 5.90652,0 V 626.4871 h 2.10938 v 1.96875 q 1.53125,-2.28125 4.40625,-2.28125 1.25,0 2.29687,0.45312 1.04688,0.45313 1.5625,1.1875 0.53125,0.71875 0.73438,1.71875 0.125,0.65625 0.125,2.28125 v 8.5 h -2.34375 v -8.40625 q 0,-1.4375 -0.28125,-2.14062 -0.26563,-0.71875 -0.96875,-1.14063 -0.6875,-0.42187 -1.625,-0.42187 -1.48438,0 -2.57813,0.95312 -1.09375,0.95313 -1.09375,3.60938 v 7.54687 z m 19.94992,-2.09375 0.32813,2.0625 q -0.98438,0.21875 -1.76563,0.21875 -1.26562,0 -1.96875,-0.40625 -0.70312,-0.40625 -1,-1.0625 -0.28125,-0.65625 -0.28125,-2.76562 v -7.95313 h -1.71875 v -1.82815 h 1.71875 v -3.42188 l 2.32813,-1.40625 v 4.82813 h 2.35937 v 1.82812 h -2.35937 v 8.07813 q 0,1 0.125,1.29687 0.125,0.28125 0.40625,0.45313 0.28125,0.17187 0.79687,0.17187 0.39063,0 1.03125,-0.0937 z m 1.34348,-2.03125 2.32812,-0.35937 q 0.1875,1.39062 1.07813,2.14062 0.89062,0.73438 2.5,0.73438 1.60937,0 2.39062,-0.65625 0.78125,-0.65625 0.78125,-1.54688 0,-0.79687 -0.6875,-1.25 -0.48437,-0.3125 -2.39062,-0.79687 -2.57813,-0.65625 -3.57813,-1.125 -1,-0.46875 -1.51562,-1.3125 -0.51563,-0.84375 -0.51563,-1.85938 0,-0.92187 0.42188,-1.70312 0.4375,-0.79688 1.15625,-1.3125 0.54687,-0.40625 1.48437,-0.6875 0.95313,-0.28125 2.03125,-0.28125 1.625,0 2.85938,0.46875 1.23437,0.46875 1.8125,1.28125 0.59375,0.79687 0.8125,2.14062 l -2.29688,0.3125 q -0.15625,-1.07812 -0.90625,-1.67187 -0.75,-0.59375 -2.10937,-0.59375 -1.60938,0 -2.3125,0.53125 -0.6875,0.53125 -0.6875,1.25 0,0.45312 0.29687,0.8125 0.28125,0.375 0.89063,0.625 0.35937,0.14062 2.07812,0.60937 2.48438,0.65625 3.46875,1.07813 0.98438,0.42187 1.53125,1.23437 0.5625,0.79688 0.5625,2 0,1.17188 -0.6875,2.21875 -0.67187,1.03125 -1.96875,1.59375 -1.28125,0.5625 -2.90625,0.5625 -2.70312,0 -4.125,-1.10937 -1.40625,-1.125 -1.79687,-3.32813 z" />
  <path
     style="fill:#000000;fill-rule:nonzero"
     inkscape:connector-curvature="0"
     id="path3855"
     d="m 122.06543,670.22145 0.32812,2.0625 q -0.98437,0.21875 -1.76562,0.21875 -1.26563,0 -1.96875,-0.40625 -0.70313,-0.40625 -1,-1.0625 -0.28125,-0.65625 -0.28125,-2.76562 v -7.95313 h -1.71875 v -1.82812 h 1.71875 v -3.42188 l 2.32812,-1.40625 v 4.82813 h 2.35938 v 1.82812 h -2.35938 v 8.07813 q 0,1 0.125,1.29687 0.125,0.28125 0.40625,0.45313 0.28125,0.17187 0.79688,0.17187 0.39062,0 1.03125,-0.0937 z m 1.42158,-4.8125 q 0,-3.84375 2.125,-5.6875 1.78125,-1.54687 4.34375,-1.54687 2.85938,0 4.65625,1.875 1.8125,1.85937 1.8125,5.15625 0,2.67187 -0.79687,4.20312 -0.79688,1.53125 -2.32813,2.375 -1.53125,0.84375 -3.34375,0.84375 -2.89062,0 -4.6875,-1.85937 -1.78125,-1.85938 -1.78125,-5.35938 z m 2.40625,0 q 0,2.65625 1.15625,3.98438 1.15625,1.3125 2.90625,1.3125 1.75,0 2.90625,-1.32813 1.15625,-1.32812 1.15625,-4.04687 0,-2.5625 -1.17187,-3.89063 -1.15625,-1.32812 -2.89063,-1.32812 -1.75,0 -2.90625,1.32812 -1.15625,1.3125 -1.15625,3.96875 z m 25.80901,4.8125 0.32812,2.0625 q -0.98437,0.21875 -1.76562,0.21875 -1.26563,0 -1.96875,-0.40625 -0.70313,-0.40625 -1,-1.0625 -0.28125,-0.65625 -0.28125,-2.76562 v -7.95313 h -1.71875 v -1.82812 h 1.71875 v -3.42188 l 2.32812,-1.40625 v 4.82813 h 2.35938 v 1.82812 h -2.35938 v 8.07813 q 0,1 0.125,1.29687 0.125,0.28125 0.40625,0.45313 0.28125,0.17187 0.79688,0.17187 0.39062,0 1.03125,-0.0937 z m 2.26535,2.09375 v -13.82812 h 2.10937 v 2.09375 q 0.79688,-1.46875 1.48438,-1.9375 0.6875,-0.46875 1.5,-0.46875 1.1875,0 2.40625,0.76562 l -0.79688,2.17188 q -0.85937,-0.51563 -1.71875,-0.51563 -0.76562,0 -1.39062,0.46875 -0.60938,0.45313 -0.85938,1.28125 -0.39062,1.25 -0.39062,2.73438 v 7.23437 z m 17.92361,-1.70312 q -1.3125,1.10937 -2.51562,1.5625 -1.20313,0.45312 -2.57813,0.45312 -2.28125,0 -3.5,-1.10937 -1.21875,-1.10938 -1.21875,-2.84375 0,-1.01563 0.45313,-1.85938 0.46875,-0.84375 1.21875,-1.34375 0.75,-0.51562 1.6875,-0.76562 0.6875,-0.1875 2.07812,-0.35938 2.82813,-0.32812 4.17188,-0.79687 0.0156,-0.48438 0.0156,-0.625 0,-1.42188 -0.65625,-2.01563 -0.90625,-0.79687 -2.67187,-0.79687 -1.65625,0 -2.45313,0.59375 -0.78125,0.57812 -1.15625,2.04687 l -2.29687,-0.3125 q 0.3125,-1.46875 1.03125,-2.375 0.71875,-0.90625 2.0625,-1.39062 1.35937,-0.5 3.14062,-0.5 1.78125,0 2.875,0.42187 1.10938,0.42188 1.625,1.04688 0.53125,0.625 0.73438,1.59375 0.125,0.59375 0.125,2.15625 v 3.125 q 0,3.26562 0.14062,4.14062 0.15625,0.85938 0.59375,1.65625 h -2.4375 q -0.375,-0.73437 -0.46875,-1.70312 z m -0.20312,-5.23438 q -1.26563,0.51563 -3.82813,0.89063 -1.4375,0.20312 -2.04687,0.46875 -0.59375,0.25 -0.92188,0.75 -0.3125,0.5 -0.3125,1.125 0,0.9375 0.70313,1.5625 0.70312,0.625 2.07812,0.625 1.34375,0 2.39063,-0.59375 1.0625,-0.59375 1.5625,-1.625 0.375,-0.79688 0.375,-2.34375 z m 6.01242,-9.45312 v -2.6875 h 2.34375 v 2.6875 z m 0,16.39062 v -13.82812 h 2.34375 v 13.82812 z m 5.90655,0 v -13.82812 h 2.10938 v 1.96875 q 1.53125,-2.28125 4.40625,-2.28125 1.25,0 2.29687,0.45312 1.04688,0.45313 1.5625,1.1875 0.53125,0.71875 0.73438,1.71875 0.125,0.65625 0.125,2.28125 v 8.5 h -2.34375 v -8.40625 q 0,-1.4375 -0.28125,-2.14062 -0.26563,-0.71875 -0.96875,-1.14063 -0.6875,-0.42187 -1.625,-0.42187 -1.48438,0 -2.57813,0.95312 -1.09375,0.95313 -1.09375,3.60938 v 7.54687 z m 14.84055,-16.39062 v -2.6875 h 2.34375 v 2.6875 z m 0,16.39062 v -13.82812 h 2.34375 v 13.82812 z m 5.90655,0 v -13.82812 h 2.10938 v 1.96875 q 1.53125,-2.28125 4.40625,-2.28125 1.25,0 2.29687,0.45312 1.04688,0.45313 1.5625,1.1875 0.53125,0.71875 0.73438,1.71875 0.125,0.65625 0.125,2.28125 v 8.5 h -2.34375 v -8.40625 q 0,-1.4375 -0.28125,-2.14062 -0.26563,-0.71875 -0.96875,-1.14063 -0.6875,-0.42187 -1.625,-0.42187 -1.48438,0 -2.57813,0.95312 -1.09375,0.95313 -1.09375,3.60938 v 7.54687 z m 14.40305,1.14063 2.28125,0.34375 q 0.14063,1.04687 0.79688,1.53125 0.85937,0.65625 2.375,0.65625 1.625,0 2.5,-0.65625 0.89062,-0.64063 1.20312,-1.8125 0.1875,-0.71875 0.17188,-3.01563 -1.53125,1.8125 -3.82813,1.8125 -2.84375,0 -4.40625,-2.04687 -1.5625,-2.0625 -1.5625,-4.9375 0,-1.98438 0.71875,-3.65625 0.71875,-1.67188 2.07813,-2.57813 1.35937,-0.92187 3.1875,-0.92187 2.45312,0 4.03125,1.98437 v -1.67187 h 2.17187 v 11.95312 q 0,3.23438 -0.65625,4.57813 -0.65625,1.34375 -2.09375,2.125 -1.42187,0.78125 -3.5,0.78125 -2.46875,0 -4,-1.10938 -1.51562,-1.10937 -1.46875,-3.35937 z m 1.9375,-8.29688 q 0,2.71875 1.07813,3.96875 1.07812,1.25 2.70312,1.25 1.625,0 2.71875,-1.23437 1.09375,-1.25 1.09375,-3.90625 0,-2.54688 -1.125,-3.82813 -1.125,-1.29687 -2.71875,-1.29687 -1.5625,0 -2.65625,1.28125 -1.09375,1.26562 -1.09375,3.76562 z m 19.77777,3.03125 2.32813,-0.35937 q 0.1875,1.39062 1.07812,2.14062 0.89063,0.73438 2.5,0.73438 1.60938,0 2.39063,-0.65625 0.78125,-0.65625 0.78125,-1.54688 0,-0.79687 -0.6875,-1.25 -0.48438,-0.3125 -2.39063,-0.79687 -2.57812,-0.65625 -3.57812,-1.125 -1,-0.46875 -1.51563,-1.3125 -0.51562,-0.84375 -0.51562,-1.85938 0,-0.92187 0.42187,-1.70312 0.4375,-0.79688 1.15625,-1.3125 0.54688,-0.40625 1.48438,-0.6875 0.95312,-0.28125 2.03125,-0.28125 1.625,0 2.85937,0.46875 1.23438,0.46875 1.8125,1.28125 0.59375,0.79687 0.8125,2.14062 l -2.29687,0.3125 q -0.15625,-1.07812 -0.90625,-1.67187 -0.75,-0.59375 -2.10938,-0.59375 -1.60937,0 -2.3125,0.53125 -0.6875,0.53125 -0.6875,1.25 0,0.45312 0.29688,0.8125 0.28125,0.375 0.89062,0.625 0.35938,0.14062 2.07813,0.60937 2.48437,0.65625 3.46875,1.07813 0.98437,0.42187 1.53125,1.23437 0.5625,0.79688 0.5625,2 0,1.17188 -0.6875,2.21875 -0.67188,1.03125 -1.96875,1.59375 -1.28125,0.5625 -2.90625,0.5625 -2.70313,0 -4.125,-1.10937 -1.40625,-1.125 -1.79688,-3.32813 z m 23.73439,-0.32812 2.42188,0.29687 q -0.57813,2.125 -2.125,3.29688 -1.54688,1.17187 -3.95313,1.17187 -3.03125,0 -4.8125,-1.85937 -1.78125,-1.875 -1.78125,-5.25 0,-3.48438 1.79688,-5.40625 1.79687,-1.9375 4.67187,-1.9375 2.76563,0 4.51563,1.89062 1.76562,1.89063 1.76562,5.3125 0,0.20313 -0.0156,0.625 h -10.3125 q 0.14062,2.28125 1.29687,3.5 1.15625,1.20313 2.89063,1.20313 1.28125,0 2.1875,-0.67188 0.92187,-0.6875 1.45312,-2.17187 z m -7.6875,-3.78125 h 7.71875 q -0.15625,-1.75 -0.89062,-2.625 -1.125,-1.34375 -2.90625,-1.34375 -1.60938,0 -2.71875,1.07812 -1.09375,1.07813 -1.20313,2.89063 z m 18.1687,6.14062 0.32813,2.0625 q -0.98438,0.21875 -1.76563,0.21875 -1.26562,0 -1.96875,-0.40625 -0.70312,-0.40625 -1,-1.0625 -0.28125,-0.65625 -0.28125,-2.76562 v -7.95313 h -1.71875 v -1.82812 h 1.71875 v -3.42188 l 2.32813,-1.40625 v 4.82813 h 2.35937 v 1.82812 h -2.35937 v 8.07813 q 0,1 0.125,1.29687 0.125,0.28125 0.40625,0.45313 0.28125,0.17187 0.79687,0.17187 0.39063,0 1.03125,-0.0937 z" />
  <path
     style="fill:#000000;fill-opacity:0;fill-rule:evenodd"
     inkscape:connector-curvature="0"
     id="path3857"
     d="m 163.2214,238.82914 h 18.14174 v -23.49606 h 36.28346 v 23.49606 h 18.14173 l -36.28347,23.49606 z" />
  <path
     style="fill-rule:evenodd;stroke:#000000;stroke-width:3;stroke-linecap:butt;stroke-linejoin:round"
     inkscape:connector-curvature="0"
     id="path3859"
     d="m 163.2214,238.82914 h 18.14174 v -23.49606 h 36.28346 v 23.49606 h 18.14173 l -36.28347,23.49606 z" />
  <path
     style="fill:#000000;fill-opacity:0;fill-rule:evenodd"
     inkscape:connector-curvature="0"
     id="path3861"
     d="m 163.2214,401.98353 h 18.14174 v -23.49606 h 36.28346 v 23.49606 h 18.14173 l -36.28347,23.49606 z" />
  <path
     style="fill-rule:evenodd;stroke:#000000;stroke-width:3;stroke-linecap:butt;stroke-linejoin:round"
     inkscape:connector-curvature="0"
     id="path3863"
     d="m 163.2214,401.98353 h 18.14174 v -23.49606 h 36.28346 v 23.49606 h 18.14173 l -36.28347,23.49606 z" />
  <path
     style="fill:#000000;fill-opacity:0;fill-rule:evenodd"
     inkscape:connector-curvature="0"
     id="path3865"
     d="m 163.2214,565.13814 h 18.14174 v -23.49603 h 36.28346 v 23.49603 h 18.14173 l -36.28347,23.49609 z" />
  <path
     style="fill-rule:evenodd;stroke:#000000;stroke-width:3;stroke-linecap:butt;stroke-linejoin:round"
     inkscape:connector-curvature="0"
     id="path3867"
     d="m 163.2214,565.13814 h 18.14174 v -23.49603 h 36.28346 v 23.49603 h 18.14173 l -36.28347,23.49609 z" />
  <path
     style="fill:#000000;fill-opacity:0;fill-rule:evenodd"
     inkscape:connector-curvature="0"
     id="path3869"
     d="M 388.94213,59.783468 H 220.49259 v 14.52156 h 17.89691 l -37.58983,24.86427 -37.58983,-24.86427 h 17.89691 v -53.90739 h 207.83537 z" />
  <path
     style="fill:#000000;fill-opacity:0;fill-rule:evenodd"
     inkscape:connector-curvature="0"
     id="path3873"
     d="m 220.643,704.7966 v 22.39966 h 142.38112 v -18.6554 l 25.91809,39.18299 -25.91809,39.18298 V 768.25137 H 179.58787 V 704.7966 Z" />
  <path
     style="fill-rule:evenodd;stroke:#000000;stroke-width:3;stroke-linecap:butt;stroke-linejoin:round"
     inkscape:connector-curvature="0"
     id="path3875"
     d="m 220.643,704.7966 v 22.39966 h 142.38112 v -18.6554 l 25.91809,39.18299 -25.91809,39.18298 V 768.25137 H 179.58787 V 704.7966 Z" />
</svg>
