<?xml version="1.0" encoding="UTF-8" standalone="no"?>
<!-- Created with Inkscape (http://www.inkscape.org/) -->

<svg
   xmlns:ns1="http://wanglongqi.github.io/WriteTeX"
   xmlns:dc="http://purl.org/dc/elements/1.1/"
   xmlns:cc="http://creativecommons.org/ns#"
   xmlns:rdf="http://www.w3.org/1999/02/22-rdf-syntax-ns#"
   xmlns:svg="http://www.w3.org/2000/svg"
   xmlns="http://www.w3.org/2000/svg"
   xmlns:sodipodi="http://sodipodi.sourceforge.net/DTD/sodipodi-0.dtd"
   xmlns:inkscape="http://www.inkscape.org/namespaces/inkscape"
   width="114.19368mm"
   height="93.835808mm"
   viewBox="0 0 114.19369 93.835805"
   version="1.1"
   id="svg8"
   inkscape:version="0.92.4 (unknown)"
   sodipodi:docname="intuition.svg">
  <defs
     id="defs2" />
  <sodipodi:namedview
     id="base"
     pagecolor="#ffffff"
     bordercolor="#666666"
     borderopacity="1.0"
     inkscape:pageopacity="0.0"
     inkscape:pageshadow="2"
     inkscape:zoom="0.98994949"
     inkscape:cx="-330.60144"
     inkscape:cy="281.98972"
     inkscape:document-units="mm"
     inkscape:current-layer="layer1"
     showgrid="false"
     units="mm"
     showguides="true"
     inkscape:snap-text-baseline="true"
     inkscape:window-width="2560"
     inkscape:window-height="1385"
     inkscape:window-x="0"
     inkscape:window-y="27"
     inkscape:window-maximized="1"
     inkscape:guide-bbox="true"
     inkscape:snap-object-midpoints="true"
     inkscape:snap-center="true"
     inkscape:snap-midpoints="true"
     inkscape:snap-smooth-nodes="true"
     inkscape:snap-intersection-paths="true"
     inkscape:object-paths="true"
     inkscape:snap-bbox="true"
     inkscape:bbox-paths="true"
     inkscape:bbox-nodes="true"
     inkscape:snap-bbox-edge-midpoints="true"
     inkscape:snap-bbox-midpoints="true"
     fit-margin-top="0"
     fit-margin-left="0"
     fit-margin-right="0"
     fit-margin-bottom="0" />
  <metadata
     id="metadata5">
    <rdf:RDF>
      <cc:Work
         rdf:about="">
        <dc:format>image/svg+xml</dc:format>
        <dc:type
           rdf:resource="http://purl.org/dc/dcmitype/StillImage" />
        <dc:title />
      </cc:Work>
    </rdf:RDF>
  </metadata>
  <g
     inkscape:label="Desc"
     inkscape:groupmode="layer"
     id="layer1"
     transform="translate(-56.411994,-86.422874)">
    <flowRoot
       xml:space="preserve"
       id="flowRoot4829"
       style="font-style:normal;font-weight:normal;font-size:40px;line-height:1.25;font-family:sans-serif;letter-spacing:0px;word-spacing:0px;fill:#000000;fill-opacity:1;stroke:none"><flowRegion
         id="flowRegion4831"><rect
           id="rect4833"
           width="706.09662"
           height="222.23357"
           x="-608.11182"
           y="181.05748" /></flowRegion><flowPara
         id="flowPara4835" /></flowRoot>    <g
       id="g514"
       transform="translate(-99.800522,21.809533)"
       ns1:text="$\\bm{\\omega}$">
      <g
         id="surface1">
        <g
           id="g511"
           style="fill:#000000;fill-opacity:1">
          <path
             id="path509"
             transform="translate(178.585,110.99)"
             d="M 3.609375,-1.390625 C 3.859375,-1.859375 4,-2.34375 4,-2.515625 c 0,-0.21875 -0.125,-0.4375 -0.375,-0.4375 -0.625,0 -0.6875,1.0625 -0.703125,1.328125 C 2.90625,-1.46875 2.90625,-1.46875 2.890625,-1.453125 2.734375,-1.3125 2.3125,-1.015625 1.78125,-1.015625 1.125,-1.015625 0.75,-1.453125 0.75,-2 c 0,-0.3125 0.171875,-1.0625 0.859375,-2 0.09375,-0.109375 0.109375,-0.140625 0.109375,-0.21875 0,-0.125 -0.09375,-0.203125 -0.203125,-0.203125 -0.09375,0 -0.15625,0.0625 -0.171875,0.0625 -0.046875,0.046875 -1.125,1.34375 -1.125,2.78125 0,1 0.515625,1.65625 1.359375,1.65625 0.703125,0 1.265625,-0.484375 1.484375,-0.71875 0.125,0.296875 0.421875,0.71875 1.078125,0.71875 0.859375,0 1.625,-0.625 2.0625,-1.296875 0.609375,-0.953125 0.6875,-2.234375 0.6875,-2.375 0,-0.765625 -0.453125,-0.921875 -0.65625,-0.921875 -0.375,0 -0.765625,0.40625 -0.765625,0.75 0,0.265625 0.1875,0.390625 0.296875,0.46875 0.25,0.171875 0.46875,0.40625 0.46875,0.71875 0,0.671875 -0.84375,1.5625 -1.890625,1.5625 -0.28125,0 -0.5625,-0.078125 -0.734375,-0.375 z m 0,0"
             style="stroke:none"
             inkscape:connector-curvature="0" />
        </g>
      </g>
    </g>
    <g
       id="g3458"
       transform="translate(-50.423063,-17.082751)"
       ns1:text="$y_1 | \\boldsymbol{x}_1$">
      <g
         id="g3456">
        <g
           id="g3438"
           style="fill:#000000;fill-opacity:1">
          <path
             id="path3436"
             transform="translate(178.585,110.99)"
             d="m 4.84375,-3.796875 c 0.046875,-0.140625 0.046875,-0.15625 0.046875,-0.234375 0,-0.171875 -0.140625,-0.265625 -0.296875,-0.265625 -0.09375,0 -0.25,0.0625 -0.34375,0.203125 -0.015625,0.0625 -0.109375,0.359375 -0.140625,0.546875 -0.078125,0.25 -0.140625,0.53125 -0.203125,0.796875 l -0.453125,1.796875 c -0.03125,0.140625 -0.46875,0.84375 -1.125,0.84375 -0.5,0 -0.609375,-0.4375 -0.609375,-0.8125 C 1.71875,-1.375 1.890625,-2 2.21875,-2.875 2.375,-3.28125 2.421875,-3.390625 2.421875,-3.59375 c 0,-0.4375 -0.3125,-0.8125 -0.8125,-0.8125 -0.953125,0 -1.3125,1.453125 -1.3125,1.53125 0,0.109375 0.09375,0.109375 0.109375,0.109375 0.109375,0 0.109375,-0.03125 0.15625,-0.1875 0.28125,-0.9375 0.671875,-1.234375 1.015625,-1.234375 0.078125,0 0.25,0 0.25,0.3125 0,0.25 -0.109375,0.515625 -0.171875,0.703125 -0.40625,1.0625 -0.578125,1.625 -0.578125,2.09375 0,0.890625 0.625,1.1875 1.21875,1.1875 0.390625,0 0.71875,-0.171875 1,-0.453125 -0.125,0.515625 -0.25,1.015625 -0.640625,1.546875 -0.265625,0.328125 -0.640625,0.625 -1.09375,0.625 -0.140625,0 -0.59375,-0.03125 -0.765625,-0.421875 0.15625,0 0.296875,0 0.421875,-0.125 C 1.328125,1.203125 1.421875,1.0625 1.421875,0.875 1.421875,0.5625 1.15625,0.53125 1.0625,0.53125 0.828125,0.53125 0.5,0.6875 0.5,1.171875 c 0,0.5 0.4375,0.875 1.0625,0.875 1.015625,0 2.046875,-0.90625 2.328125,-2.03125 z m 0,0"
             style="stroke:none"
             inkscape:connector-curvature="0" />
        </g>
        <g
           id="g3442"
           style="fill:#000000;fill-opacity:1">
          <path
             id="path3440"
             transform="translate(183.469,112.485)"
             d="m 2.328125,-4.4375 c 0,-0.1875 0,-0.1875 -0.203125,-0.1875 -0.453125,0.4375 -1.078125,0.4375 -1.359375,0.4375 v 0.25 c 0.15625,0 0.625,0 1,-0.1875 v 3.546875 c 0,0.234375 0,0.328125 -0.6875,0.328125 H 0.8125 V 0 c 0.125,0 0.984375,-0.03125 1.234375,-0.03125 0.21875,0 1.09375,0.03125 1.25,0.03125 V -0.25 H 3.03125 c -0.703125,0 -0.703125,-0.09375 -0.703125,-0.328125 z m 0,0"
             style="stroke:none"
             inkscape:connector-curvature="0" />
        </g>
        <g
           id="g3446"
           style="fill:#000000;fill-opacity:1">
          <path
             id="path3444"
             transform="translate(187.938,110.99)"
             d="m 1.578125,-7.125 c 0,-0.171875 0,-0.359375 -0.1875,-0.359375 -0.203125,0 -0.203125,0.1875 -0.203125,0.359375 v 9.265625 c 0,0.171875 0,0.359375 0.203125,0.359375 0.1875,0 0.1875,-0.1875 0.1875,-0.359375 z m 0,0"
             style="stroke:none"
             inkscape:connector-curvature="0" />
        </g>
        <g
           id="g3450"
           style="fill:#000000;fill-opacity:1">
          <path
             id="path3448"
             transform="translate(190.706,110.99)"
             d="m 5.34375,-4 c -0.359375,0.109375 -0.53125,0.4375 -0.53125,0.6875 0,0.21875 0.15625,0.46875 0.484375,0.46875 0.359375,0 0.71875,-0.296875 0.71875,-0.78125 C 6.015625,-4.15625 5.5,-4.5 4.890625,-4.5 4.3125,-4.5 3.953125,-4.078125 3.8125,-3.890625 3.5625,-4.3125 3.015625,-4.5 2.4375,-4.5 c -1.25,0 -1.921875,1.21875 -1.921875,1.546875 0,0.140625 0.140625,0.140625 0.234375,0.140625 0.125,0 0.1875,0 0.234375,-0.125 0.28125,-0.90625 1,-1.203125 1.40625,-1.203125 0.375,0 0.5625,0.171875 0.5625,0.484375 0,0.203125 -0.140625,0.75 -0.234375,1.109375 L 2.375,-1.1875 c -0.140625,0.609375 -0.5,0.90625 -0.84375,0.90625 -0.046875,0 -0.28125,0 -0.46875,-0.140625 0.359375,-0.109375 0.53125,-0.453125 0.53125,-0.6875 0,-0.21875 -0.171875,-0.46875 -0.5,-0.46875 -0.34375,0 -0.71875,0.296875 -0.71875,0.78125 0,0.53125 0.53125,0.875 1.140625,0.875 0.5625,0 0.9375,-0.421875 1.0625,-0.609375 0.25,0.421875 0.8125,0.609375 1.375,0.609375 1.265625,0 1.9375,-1.21875 1.9375,-1.546875 0,-0.140625 -0.15625,-0.140625 -0.234375,-0.140625 -0.125,0 -0.1875,0 -0.234375,0.125 -0.28125,0.90625 -1,1.203125 -1.421875,1.203125 -0.375,0 -0.546875,-0.171875 -0.546875,-0.5 0,-0.203125 0.125,-0.734375 0.21875,-1.109375 0.0625,-0.25 0.296875,-1.1875 0.34375,-1.34375 0.15625,-0.609375 0.5,-0.90625 0.84375,-0.90625 0.0625,0 0.28125,0 0.484375,0.140625 z m 0,0"
             style="stroke:none"
             inkscape:connector-curvature="0" />
        </g>
        <g
           id="g3454"
           style="fill:#000000;fill-opacity:1">
          <path
             id="path3452"
             transform="translate(197.271,112.485)"
             d="m 2.328125,-4.4375 c 0,-0.1875 0,-0.1875 -0.203125,-0.1875 -0.453125,0.4375 -1.078125,0.4375 -1.359375,0.4375 v 0.25 c 0.15625,0 0.625,0 1,-0.1875 v 3.546875 c 0,0.234375 0,0.328125 -0.6875,0.328125 H 0.8125 V 0 c 0.125,0 0.984375,-0.03125 1.234375,-0.03125 0.21875,0 1.09375,0.03125 1.25,0.03125 V -0.25 H 3.03125 c -0.703125,0 -0.703125,-0.09375 -0.703125,-0.328125 z m 0,0"
             style="stroke:none"
             inkscape:connector-curvature="0" />
        </g>
      </g>
    </g>
    <g
       id="g1012"
       transform="translate(-32.477823,49.919451)"
       ns1:text="$y_3 | \\boldsymbol{x}_3$">
      <g
         id="g1010">
        <g
           id="g992"
           style="fill:#000000;fill-opacity:1">
          <path
             id="path990"
             transform="translate(178.585,110.99)"
             d="m 4.84375,-3.796875 c 0.046875,-0.140625 0.046875,-0.15625 0.046875,-0.234375 0,-0.171875 -0.140625,-0.265625 -0.296875,-0.265625 -0.09375,0 -0.25,0.0625 -0.34375,0.203125 -0.015625,0.0625 -0.109375,0.359375 -0.140625,0.546875 -0.078125,0.25 -0.140625,0.53125 -0.203125,0.796875 l -0.453125,1.796875 c -0.03125,0.140625 -0.46875,0.84375 -1.125,0.84375 -0.5,0 -0.609375,-0.4375 -0.609375,-0.8125 C 1.71875,-1.375 1.890625,-2 2.21875,-2.875 2.375,-3.28125 2.421875,-3.390625 2.421875,-3.59375 c 0,-0.4375 -0.3125,-0.8125 -0.8125,-0.8125 -0.953125,0 -1.3125,1.453125 -1.3125,1.53125 0,0.109375 0.09375,0.109375 0.109375,0.109375 0.109375,0 0.109375,-0.03125 0.15625,-0.1875 0.28125,-0.9375 0.671875,-1.234375 1.015625,-1.234375 0.078125,0 0.25,0 0.25,0.3125 0,0.25 -0.109375,0.515625 -0.171875,0.703125 -0.40625,1.0625 -0.578125,1.625 -0.578125,2.09375 0,0.890625 0.625,1.1875 1.21875,1.1875 0.390625,0 0.71875,-0.171875 1,-0.453125 -0.125,0.515625 -0.25,1.015625 -0.640625,1.546875 -0.265625,0.328125 -0.640625,0.625 -1.09375,0.625 -0.140625,0 -0.59375,-0.03125 -0.765625,-0.421875 0.15625,0 0.296875,0 0.421875,-0.125 C 1.328125,1.203125 1.421875,1.0625 1.421875,0.875 1.421875,0.5625 1.15625,0.53125 1.0625,0.53125 0.828125,0.53125 0.5,0.6875 0.5,1.171875 c 0,0.5 0.4375,0.875 1.0625,0.875 1.015625,0 2.046875,-0.90625 2.328125,-2.03125 z m 0,0"
             style="stroke:none"
             inkscape:connector-curvature="0" />
        </g>
        <g
           id="g996"
           style="fill:#000000;fill-opacity:1">
          <path
             id="path994"
             transform="translate(183.469,112.485)"
             d="m 1.90625,-2.328125 c 0.546875,0 0.9375,0.375 0.9375,1.125 0,0.859375 -0.515625,1.125 -0.90625,1.125 -0.28125,0 -0.90625,-0.078125 -1.1875,-0.5 0.328125,0 0.40625,-0.234375 0.40625,-0.390625 0,-0.21875 -0.171875,-0.375 -0.390625,-0.375 -0.1875,0 -0.390625,0.125 -0.390625,0.40625 0,0.65625 0.71875,1.078125 1.5625,1.078125 0.96875,0 1.640625,-0.65625 1.640625,-1.34375 0,-0.546875 -0.4375,-1.09375 -1.203125,-1.25 0.71875,-0.265625 0.984375,-0.78125 0.984375,-1.21875 0,-0.546875 -0.625,-0.953125 -1.40625,-0.953125 -0.765625,0 -1.359375,0.375 -1.359375,0.9375 0,0.234375 0.15625,0.359375 0.359375,0.359375 0.21875,0 0.359375,-0.15625 0.359375,-0.34375 0,-0.203125 -0.140625,-0.359375 -0.359375,-0.375 0.25,-0.296875 0.71875,-0.375 0.984375,-0.375 0.3125,0 0.75,0.15625 0.75,0.75 0,0.296875 -0.09375,0.625 -0.28125,0.828125 -0.21875,0.265625 -0.421875,0.28125 -0.765625,0.3125 -0.171875,0.015625 -0.1875,0.015625 -0.21875,0.015625 -0.015625,0 -0.078125,0.015625 -0.078125,0.09375 0,0.09375 0.0625,0.09375 0.1875,0.09375 z m 0,0"
             style="stroke:none"
             inkscape:connector-curvature="0" />
        </g>
        <g
           id="g1000"
           style="fill:#000000;fill-opacity:1">
          <path
             id="path998"
             transform="translate(187.938,110.99)"
             d="m 1.578125,-7.125 c 0,-0.171875 0,-0.359375 -0.1875,-0.359375 -0.203125,0 -0.203125,0.1875 -0.203125,0.359375 v 9.265625 c 0,0.171875 0,0.359375 0.203125,0.359375 0.1875,0 0.1875,-0.1875 0.1875,-0.359375 z m 0,0"
             style="stroke:none"
             inkscape:connector-curvature="0" />
        </g>
        <g
           id="g1004"
           style="fill:#000000;fill-opacity:1">
          <path
             id="path1002"
             transform="translate(190.706,110.99)"
             d="m 5.34375,-4 c -0.359375,0.109375 -0.53125,0.4375 -0.53125,0.6875 0,0.21875 0.15625,0.46875 0.484375,0.46875 0.359375,0 0.71875,-0.296875 0.71875,-0.78125 C 6.015625,-4.15625 5.5,-4.5 4.890625,-4.5 4.3125,-4.5 3.953125,-4.078125 3.8125,-3.890625 3.5625,-4.3125 3.015625,-4.5 2.4375,-4.5 c -1.25,0 -1.921875,1.21875 -1.921875,1.546875 0,0.140625 0.140625,0.140625 0.234375,0.140625 0.125,0 0.1875,0 0.234375,-0.125 0.28125,-0.90625 1,-1.203125 1.40625,-1.203125 0.375,0 0.5625,0.171875 0.5625,0.484375 0,0.203125 -0.140625,0.75 -0.234375,1.109375 L 2.375,-1.1875 c -0.140625,0.609375 -0.5,0.90625 -0.84375,0.90625 -0.046875,0 -0.28125,0 -0.46875,-0.140625 0.359375,-0.109375 0.53125,-0.453125 0.53125,-0.6875 0,-0.21875 -0.171875,-0.46875 -0.5,-0.46875 -0.34375,0 -0.71875,0.296875 -0.71875,0.78125 0,0.53125 0.53125,0.875 1.140625,0.875 0.5625,0 0.9375,-0.421875 1.0625,-0.609375 0.25,0.421875 0.8125,0.609375 1.375,0.609375 1.265625,0 1.9375,-1.21875 1.9375,-1.546875 0,-0.140625 -0.15625,-0.140625 -0.234375,-0.140625 -0.125,0 -0.1875,0 -0.234375,0.125 -0.28125,0.90625 -1,1.203125 -1.421875,1.203125 -0.375,0 -0.546875,-0.171875 -0.546875,-0.5 0,-0.203125 0.125,-0.734375 0.21875,-1.109375 0.0625,-0.25 0.296875,-1.1875 0.34375,-1.34375 0.15625,-0.609375 0.5,-0.90625 0.84375,-0.90625 0.0625,0 0.28125,0 0.484375,0.140625 z m 0,0"
             style="stroke:none"
             inkscape:connector-curvature="0" />
        </g>
        <g
           id="g1008"
           style="fill:#000000;fill-opacity:1">
          <path
             id="path1006"
             transform="translate(197.271,112.485)"
             d="m 1.90625,-2.328125 c 0.546875,0 0.9375,0.375 0.9375,1.125 0,0.859375 -0.515625,1.125 -0.90625,1.125 -0.28125,0 -0.90625,-0.078125 -1.1875,-0.5 0.328125,0 0.40625,-0.234375 0.40625,-0.390625 0,-0.21875 -0.171875,-0.375 -0.390625,-0.375 -0.1875,0 -0.390625,0.125 -0.390625,0.40625 0,0.65625 0.71875,1.078125 1.5625,1.078125 0.96875,0 1.640625,-0.65625 1.640625,-1.34375 0,-0.546875 -0.4375,-1.09375 -1.203125,-1.25 0.71875,-0.265625 0.984375,-0.78125 0.984375,-1.21875 0,-0.546875 -0.625,-0.953125 -1.40625,-0.953125 -0.765625,0 -1.359375,0.375 -1.359375,0.9375 0,0.234375 0.15625,0.359375 0.359375,0.359375 0.21875,0 0.359375,-0.15625 0.359375,-0.34375 0,-0.203125 -0.140625,-0.359375 -0.359375,-0.375 0.25,-0.296875 0.71875,-0.375 0.984375,-0.375 0.3125,0 0.75,0.15625 0.75,0.75 0,0.296875 -0.09375,0.625 -0.28125,0.828125 -0.21875,0.265625 -0.421875,0.28125 -0.765625,0.3125 -0.171875,0.015625 -0.1875,0.015625 -0.21875,0.015625 -0.015625,0 -0.078125,0.015625 -0.078125,0.09375 0,0.09375 0.0625,0.09375 0.1875,0.09375 z m 0,0"
             style="stroke:none"
             inkscape:connector-curvature="0" />
        </g>
      </g>
    </g>
    <g
       id="g934"
       transform="translate(-30.180948,5.5732869)"
       ns1:text="$y_2 | \\boldsymbol{x}_2$">
      <g
         id="g932">
        <g
           id="g914"
           style="fill:rgb(0%,0%,0%);fill-opacity:1;">
          <path
             id="path912"
             transform="translate(178.585,110.99)"
             d="M 4.84375 -3.796875 C 4.890625 -3.9375 4.890625 -3.953125 4.890625 -4.03125 C 4.890625 -4.203125 4.75 -4.296875 4.59375 -4.296875 C 4.5 -4.296875 4.34375 -4.234375 4.25 -4.09375 C 4.234375 -4.03125 4.140625 -3.734375 4.109375 -3.546875 C 4.03125 -3.296875 3.96875 -3.015625 3.90625 -2.75 L 3.453125 -0.953125 C 3.421875 -0.8125 2.984375 -0.109375 2.328125 -0.109375 C 1.828125 -0.109375 1.71875 -0.546875 1.71875 -0.921875 C 1.71875 -1.375 1.890625 -2 2.21875 -2.875 C 2.375 -3.28125 2.421875 -3.390625 2.421875 -3.59375 C 2.421875 -4.03125 2.109375 -4.40625 1.609375 -4.40625 C 0.65625 -4.40625 0.296875 -2.953125 0.296875 -2.875 C 0.296875 -2.765625 0.390625 -2.765625 0.40625 -2.765625 C 0.515625 -2.765625 0.515625 -2.796875 0.5625 -2.953125 C 0.84375 -3.890625 1.234375 -4.1875 1.578125 -4.1875 C 1.65625 -4.1875 1.828125 -4.1875 1.828125 -3.875 C 1.828125 -3.625 1.71875 -3.359375 1.65625 -3.171875 C 1.25 -2.109375 1.078125 -1.546875 1.078125 -1.078125 C 1.078125 -0.1875 1.703125 0.109375 2.296875 0.109375 C 2.6875 0.109375 3.015625 -0.0625 3.296875 -0.34375 C 3.171875 0.171875 3.046875 0.671875 2.65625 1.203125 C 2.390625 1.53125 2.015625 1.828125 1.5625 1.828125 C 1.421875 1.828125 0.96875 1.796875 0.796875 1.40625 C 0.953125 1.40625 1.09375 1.40625 1.21875 1.28125 C 1.328125 1.203125 1.421875 1.0625 1.421875 0.875 C 1.421875 0.5625 1.15625 0.53125 1.0625 0.53125 C 0.828125 0.53125 0.5 0.6875 0.5 1.171875 C 0.5 1.671875 0.9375 2.046875 1.5625 2.046875 C 2.578125 2.046875 3.609375 1.140625 3.890625 0.015625 Z M 4.84375 -3.796875 "
             style="stroke:none;" />
        </g>
        <g
           id="g918"
           style="fill:rgb(0%,0%,0%);fill-opacity:1;">
          <path
             id="path916"
             transform="translate(183.469,112.485)"
             d="M 3.515625 -1.265625 L 3.28125 -1.265625 C 3.265625 -1.109375 3.1875 -0.703125 3.09375 -0.640625 C 3.046875 -0.59375 2.515625 -0.59375 2.40625 -0.59375 L 1.125 -0.59375 C 1.859375 -1.234375 2.109375 -1.4375 2.515625 -1.765625 C 3.03125 -2.171875 3.515625 -2.609375 3.515625 -3.265625 C 3.515625 -4.109375 2.78125 -4.625 1.890625 -4.625 C 1.03125 -4.625 0.4375 -4.015625 0.4375 -3.375 C 0.4375 -3.03125 0.734375 -2.984375 0.8125 -2.984375 C 0.96875 -2.984375 1.171875 -3.109375 1.171875 -3.359375 C 1.171875 -3.484375 1.125 -3.734375 0.765625 -3.734375 C 0.984375 -4.21875 1.453125 -4.375 1.78125 -4.375 C 2.484375 -4.375 2.84375 -3.828125 2.84375 -3.265625 C 2.84375 -2.65625 2.40625 -2.1875 2.1875 -1.9375 L 0.515625 -0.265625 C 0.4375 -0.203125 0.4375 -0.1875 0.4375 0 L 3.3125 0 Z M 3.515625 -1.265625 "
             style="stroke:none;" />
        </g>
        <g
           id="g922"
           style="fill:rgb(0%,0%,0%);fill-opacity:1;">
          <path
             id="path920"
             transform="translate(187.938,110.99)"
             d="M 1.578125 -7.125 C 1.578125 -7.296875 1.578125 -7.484375 1.390625 -7.484375 C 1.1875 -7.484375 1.1875 -7.296875 1.1875 -7.125 L 1.1875 2.140625 C 1.1875 2.3125 1.1875 2.5 1.390625 2.5 C 1.578125 2.5 1.578125 2.3125 1.578125 2.140625 Z M 1.578125 -7.125 "
             style="stroke:none;" />
        </g>
        <g
           id="g926"
           style="fill:rgb(0%,0%,0%);fill-opacity:1;">
          <path
             id="path924"
             transform="translate(190.706,110.99)"
             d="M 5.34375 -4 C 4.984375 -3.890625 4.8125 -3.5625 4.8125 -3.3125 C 4.8125 -3.09375 4.96875 -2.84375 5.296875 -2.84375 C 5.65625 -2.84375 6.015625 -3.140625 6.015625 -3.625 C 6.015625 -4.15625 5.5 -4.5 4.890625 -4.5 C 4.3125 -4.5 3.953125 -4.078125 3.8125 -3.890625 C 3.5625 -4.3125 3.015625 -4.5 2.4375 -4.5 C 1.1875 -4.5 0.515625 -3.28125 0.515625 -2.953125 C 0.515625 -2.8125 0.65625 -2.8125 0.75 -2.8125 C 0.875 -2.8125 0.9375 -2.8125 0.984375 -2.9375 C 1.265625 -3.84375 1.984375 -4.140625 2.390625 -4.140625 C 2.765625 -4.140625 2.953125 -3.96875 2.953125 -3.65625 C 2.953125 -3.453125 2.8125 -2.90625 2.71875 -2.546875 L 2.375 -1.1875 C 2.234375 -0.578125 1.875 -0.28125 1.53125 -0.28125 C 1.484375 -0.28125 1.25 -0.28125 1.0625 -0.421875 C 1.421875 -0.53125 1.59375 -0.875 1.59375 -1.109375 C 1.59375 -1.328125 1.421875 -1.578125 1.09375 -1.578125 C 0.75 -1.578125 0.375 -1.28125 0.375 -0.796875 C 0.375 -0.265625 0.90625 0.078125 1.515625 0.078125 C 2.078125 0.078125 2.453125 -0.34375 2.578125 -0.53125 C 2.828125 -0.109375 3.390625 0.078125 3.953125 0.078125 C 5.21875 0.078125 5.890625 -1.140625 5.890625 -1.46875 C 5.890625 -1.609375 5.734375 -1.609375 5.65625 -1.609375 C 5.53125 -1.609375 5.46875 -1.609375 5.421875 -1.484375 C 5.140625 -0.578125 4.421875 -0.28125 4 -0.28125 C 3.625 -0.28125 3.453125 -0.453125 3.453125 -0.78125 C 3.453125 -0.984375 3.578125 -1.515625 3.671875 -1.890625 C 3.734375 -2.140625 3.96875 -3.078125 4.015625 -3.234375 C 4.171875 -3.84375 4.515625 -4.140625 4.859375 -4.140625 C 4.921875 -4.140625 5.140625 -4.140625 5.34375 -4 Z M 5.34375 -4 "
             style="stroke:none;" />
        </g>
        <g
           id="g930"
           style="fill:rgb(0%,0%,0%);fill-opacity:1;">
          <path
             id="path928"
             transform="translate(197.271,112.485)"
             d="M 3.515625 -1.265625 L 3.28125 -1.265625 C 3.265625 -1.109375 3.1875 -0.703125 3.09375 -0.640625 C 3.046875 -0.59375 2.515625 -0.59375 2.40625 -0.59375 L 1.125 -0.59375 C 1.859375 -1.234375 2.109375 -1.4375 2.515625 -1.765625 C 3.03125 -2.171875 3.515625 -2.609375 3.515625 -3.265625 C 3.515625 -4.109375 2.78125 -4.625 1.890625 -4.625 C 1.03125 -4.625 0.4375 -4.015625 0.4375 -3.375 C 0.4375 -3.03125 0.734375 -2.984375 0.8125 -2.984375 C 0.96875 -2.984375 1.171875 -3.109375 1.171875 -3.359375 C 1.171875 -3.484375 1.125 -3.734375 0.765625 -3.734375 C 0.984375 -4.21875 1.453125 -4.375 1.78125 -4.375 C 2.484375 -4.375 2.84375 -3.828125 2.84375 -3.265625 C 2.84375 -2.65625 2.40625 -2.1875 2.1875 -1.9375 L 0.515625 -0.265625 C 0.4375 -0.203125 0.4375 -0.1875 0.4375 0 L 3.3125 0 Z M 3.515625 -1.265625 "
             style="stroke:none;" />
        </g>
      </g>
    </g>
  </g>
  <g
     inkscape:groupmode="layer"
     id="layer3"
     inkscape:label="Shades"
     transform="translate(-56.411994,-86.422874)" />
  <g
     inkscape:groupmode="layer"
     id="layer2"
     inkscape:label="Outlines"
     style="display:inline"
     transform="translate(-56.411994,-86.422874)">
    <path
       style="opacity:1;fill:#cccccc;fill-opacity:1;stroke:#cccccc;stroke-width:1.58088875;stroke-miterlimit:4;stroke-dasharray:none"
       d="m 100.02792,129.49845 c 0.55111,-3.63019 1.80183,-6.71092 3.4775,-8.56569 l 0.96336,-1.06632 1.51753,1.55568 c 2.58172,2.64663 5.01998,3.33719 9.40774,2.66447 l 2.31053,-0.35424 0.17437,1.54123 c 0.29748,2.62938 1.6101,3.72256 5.23508,4.35989 2.96194,0.52076 3.19934,0.684 3.19934,2.19988 0,1.17417 -0.0947,1.3391 -1.62113,2.82352 -1.3171,1.28083 -1.73063,1.54085 -2.20498,1.38644 -0.32111,-0.10453 -1.84669,-0.24874 -3.39017,-0.32046 -2.26738,-0.10536 -3.26828,-0.0207 -5.21175,0.44094 -3.50763,0.83315 -6.43799,2.33486 -8.09589,4.14887 l -1.35166,1.47893 -1.0864,-1.2689 c -2.6621,-3.10931 -3.90112,-7.21925 -3.32347,-11.02424 z"
       id="path4534"
       inkscape:connector-curvature="0" />
    <path
       style="opacity:1;fill:#666666;fill-opacity:1;stroke:#666666;stroke-width:1.58088875;stroke-miterlimit:4;stroke-dasharray:none"
       d="m 107.17815,141.40332 c 0.6475,-0.64749 1.66067,-1.42387 2.25149,-1.72529 2.94185,-1.50082 7.75281,-2.56739 10.1252,-2.24472 l 1.12591,0.15315 -1.29555,1.16481 c -2.7593,2.48085 -3.115,5.22052 -1.23779,9.53387 1.12932,2.59489 1.27913,3.98176 0.55026,5.09415 l -0.47231,0.72084 -2.57092,-2.4852 c -1.414,-1.36687 -4.16451,-3.79045 -6.11223,-5.38573 -1.94773,-1.59529 -3.54132,-3.06884 -3.54132,-3.27457 0,-0.20572 0.52977,-0.90381 1.17726,-1.55131 z"
       id="path4536"
       inkscape:connector-curvature="0" />
    <path
       style="opacity:1;fill:#666666;fill-opacity:1;stroke:#666666;stroke-width:1.58088875;stroke-miterlimit:4;stroke-dasharray:none"
       d="m 107.80254,117.85508 c 1.78708,-0.79033 4.94864,-1.70746 8.84377,-2.56547 l 2.76099,-0.60818 0.50712,0.65995 c 0.75464,0.98205 0.63022,2.18843 -0.44776,4.34158 -0.53172,1.06207 -1.00418,1.97252 -1.0499,2.02323 -0.0457,0.0507 -1.26441,0.27145 -2.70819,0.49056 -3.23456,0.49086 -5.09213,0.33503 -6.61003,-0.55453 -1.15958,-0.67956 -2.83039,-2.3603 -2.83039,-2.84722 0,-0.14374 0.69048,-0.5667 1.53439,-0.93992 z"
       id="path4538"
       inkscape:connector-curvature="0" />
    <path
       style="opacity:1;fill:#cccccc;fill-opacity:1;stroke:#cccccc;stroke-width:1.58100009;stroke-linecap:butt;stroke-miterlimit:4;stroke-dasharray:none;paint-order:fill markers stroke"
       d="m 104.11349,109.45323 c 0.41762,-1.10249 0.93934,-2.41737 1.15938,-2.92197 l 0.40007,-0.91745 0.54146,1.05109 c 1.12786,2.18941 2.83627,3.32666 7.40367,4.92845 1.76398,0.61862 3.38248,1.22073 3.59668,1.338 0.41792,0.22882 -0.12274,0.4078 -3.59668,1.19065 -2.48522,0.56004 -5.85346,1.67318 -7.39106,2.44261 -1.39235,0.69673 -1.40198,0.69197 -2.33194,-1.15398 -0.79425,-1.57658 -0.72494,-3.46699 0.21842,-5.9574 z"
       id="path4540"
       inkscape:connector-curvature="0" />
    <path
       style="opacity:1;fill:#cccccc;fill-opacity:1;stroke:#cccccc;stroke-width:1;stroke-miterlimit:4;stroke-dasharray:none;stroke-dashoffset:0"
       d="m 101.08587,159.56627 c 0.36217,-1.32298 1.00819,-3.49855 1.43558,-4.8346 0.4274,-1.33604 1.14879,-3.92187 1.6031,-5.74629 0.4543,-1.82442 0.87866,-3.4688 0.94301,-3.65418 0.13312,-0.38347 5.63653,4.10611 9.28161,7.57176 2.65223,2.52167 2.72116,2.35135 -1.13202,2.79726 -4.10004,0.47449 -6.71642,2.00581 -8.43366,4.93606 -0.62798,1.07155 -0.87974,1.25018 -2.44223,1.73279 -0.95815,0.29593 -1.78955,0.53807 -1.84756,0.53807 -0.22343,0 -0.0416,-1.02556 0.59217,-3.34087 z"
       id="path4544"
       inkscape:connector-curvature="0" />
    <g
       id="g2099">
      <path
         transform="rotate(90,42.954654,132.18216)"
         inkscape:transform-center-y="-0.31911693"
         inkscape:transform-center-x="-0.0093329422"
         d="m 29.456905,70.272904 c -4.645121,3.462575 -6.123224,3.096706 -11.435917,0.882011 -5.312694,-2.214696 -9.0361897,-3.78343 -9.9363326,-9.454508 -0.9001429,-5.671078 2.9944116,-7.10484 7.5126056,-10.242977 4.518193,-3.138136 6.686644,-5.532601 11.781938,-2.853465 5.095295,2.679136 5.690669,5.424746 6.524186,10.841627 0.833516,5.41688 0.19864,7.364737 -4.44648,10.827312 z"
         inkscape:randomized="0.07"
         inkscape:rounded="0.45"
         inkscape:flatsided="false"
         sodipodi:arg2="2.002374"
         sodipodi:arg1="0.95517644"
         sodipodi:r2="11.408825"
         sodipodi:r1="13.422147"
         sodipodi:cy="59.931919"
         sodipodi:cx="21.916101"
         sodipodi:sides="3"
         id="path4522"
         style="fill:none;fill-opacity:0.33333333;stroke:#000000;stroke-width:1.56500006;stroke-miterlimit:4;stroke-dasharray:none"
         sodipodi:type="star" />
      <path
         transform="rotate(90,83.17872,106.39065)"
         inkscape:transform-center-y="1.0392605"
         inkscape:transform-center-x="-0.75083288"
         d="m 134.78999,58.632994 c 3.63002,9.557163 -3.61821,12.572763 -10.11133,20.816172 -6.49313,8.243409 -11.13928,12.933033 -21.24846,10.477831 C 93.321018,87.471794 92.834742,79.842947 90.357038,69.50484 c -2.477704,-10.338106 -6.956346,-14.558131 0.0039,-22.044224 6.960226,-7.486093 13.291723,-6.397957 23.319243,-4.094601 10.02751,2.303356 17.47982,5.709816 21.10983,15.266979 z"
         inkscape:randomized="0.07"
         inkscape:rounded="0.45"
         inkscape:flatsided="false"
         sodipodi:arg2="0.76596535"
         sodipodi:arg1="-0.2812322"
         sodipodi:r2="21.282207"
         sodipodi:r1="25.037891"
         sodipodi:cy="65.277313"
         sodipodi:cx="110.11505"
         sodipodi:sides="3"
         id="path4532"
         style="opacity:1;fill:none;fill-opacity:0.48051949;stroke:#000000;stroke-width:1.56500006;stroke-miterlimit:4;stroke-dasharray:none"
         sodipodi:type="star" />
      <path
         transform="rotate(90,14.089548,113.74056)"
         style="opacity:1;fill:none;fill-opacity:0.48051949;stroke:#000000;stroke-width:1.56500006;stroke-miterlimit:4;stroke-dasharray:none;image-rendering:auto"
         inkscape:transform-center-y="-0.42400663"
         inkscape:transform-center-x="2.8466307"
         d="m 54.79969,55.199323 c -3.407704,3.603723 1.427886,5.166874 -2.821389,7.841151 -4.249275,2.674277 -6.652465,-0.954054 -11.414282,0.902962 -4.761817,1.857016 -6.007279,6.891049 -10.960177,6.686405 -4.952898,-0.204644 -0.474227,-3.954301 -5.159438,-5.760094 -4.685211,-1.805793 -8.2135,0.0077 -11.931496,-3.423701 C 8.7949115,58.014635 10.495543,57.238214 8.0982917,52.990693 5.7010405,48.743172 1.5238441,50.882428 0.22428172,46.003956 -1.0752807,41.125484 4.4134522,41.357306 4.6033061,36.35973 4.79316,31.362154 -1.8506846,29.651673 0.33840006,25.027106 2.5274847,20.40254 6.36533,22.817335 9.0997772,18.515836 11.834224,14.214337 10.955912,10.559614 14.878515,7.354534 18.801118,4.1494536 21.081123,9.9268599 26.035729,9.0191209 30.990335,8.1113817 27.275947,0.33948077 32.148858,0.51012935 37.021769,0.68077792 37.785448,8.093906 42.412335,9.76579 c 4.626887,1.671884 7.896118,-4.0914038 11.931496,-1.3448216 4.035378,2.7465826 1.229106,7.3604906 4.336092,11.4012896 3.106985,4.0408 3.775031,1.07703 5.094306,5.908267 1.319275,4.831237 -0.699777,3.667258 -1.342176,8.683141 -0.6424,5.015884 5.190533,7.501525 3.11768,12.13993 -2.072854,4.638405 -7.342339,5.042005 -10.750043,8.645727 z"
         inkscape:randomized="0.07"
         inkscape:rounded="0.45"
         inkscape:flatsided="false"
         sodipodi:arg2="0.98277284"
         sodipodi:arg1="0.66861357"
         sodipodi:r2="34.060879"
         sodipodi:r1="28.951748"
         sodipodi:cy="35.343121"
         sodipodi:cx="32.339615"
         sodipodi:sides="10"
         id="path10"
         sodipodi:type="star">
        <title
           id="title4520">w</title>
      </path>
      <path
         transform="rotate(90,51.373646,149.15378)"
         inkscape:transform-center-y="-0.68288481"
         inkscape:transform-center-x="0.66646266"
         d="M 77.5571,97.295236 C 71.070369,103.7621 64.83954,101.39904 55.587176,98.527212 46.334812,95.655384 42.665996,97.030303 39.744164,88.246442 36.822333,79.46258 40.01669,73.403898 47.208493,66.967586 c 7.191804,-6.436311 10.039449,-8.642199 19.323805,-6.81885 9.284357,1.823349 9.226235,8.276768 12.189208,17.513547 2.962972,9.23678 5.322326,13.166088 -1.164406,19.632953 z"
         inkscape:randomized="0.07"
         inkscape:rounded="0.45"
         inkscape:flatsided="false"
         sodipodi:arg2="1.8325957"
         sodipodi:arg1="0.78539816"
         sodipodi:r2="18.955507"
         sodipodi:r1="22.300594"
         sodipodi:cy="81.313477"
         sodipodi:cx="61.204723"
         sodipodi:sides="3"
         id="path4530"
         style="opacity:1;fill:none;fill-opacity:0.48051949;stroke:#000000;stroke-width:1.56500006;stroke-miterlimit:4;stroke-dasharray:none"
         sodipodi:type="star" />
    </g>
  </g>
</svg>
